<svg xmlns="http://www.w3.org/2000/svg" width="186" height="186" viewBox="0 0 186 186"><defs><mask id="87wpb" width="2" height="2" x="-1" y="-1"><path fill="#fff" d="M28 23h130v130H28z"/><path d="M58 23h70c16.59 0 30 13.41 30 30v70c0 16.59-13.41 30-30 30H58c-16.59 0-30-13.41-30-30V53c0-16.59 13.41-30 30-30z"/></mask><filter id="87wpa" width="220" height="225" x="-17" y="-22" filterUnits="userSpaceOnUse"><feOffset dy="5" in="SourceGraphic" result="FeOffset1519Out"/><feGaussianBlur in="FeOffset1519Out" result="FeGaussianBlur1520Out" stdDeviation="14 14"/></filter><linearGradient id="87wpc" x1="93" x2="93" y1="23" y2="153" gradientUnits="userSpaceOnUse"><stop offset="0" stop-color="#fff"/><stop offset="1" stop-color="#e5ceff"/></linearGradient><linearGradient id="87wpd" x1="99.89" x2="100.53" y1="91.11" y2="104.42" gradientUnits="userSpaceOnUse"><stop offset="0" stop-color="#727dff"/><stop offset="1" stop-color="#3d1bad"/></linearGradient><linearGradient id="87wpe" x1="100.11" x2="100.32" y1="74.31" y2="85.26" gradientUnits="userSpaceOnUse"><stop offset="0" stop-color="#727dff"/><stop offset="1" stop-color="#3d1bad"/></linearGradient><linearGradient id="87wpf" x1="100.49" x2="99.93" y1="87.95" y2="92.11" gradientUnits="userSpaceOnUse"><stop offset="0" stop-color="#727dff"/><stop offset="1" stop-color="#3d1bad"/></linearGradient><linearGradient id="87wpg" x1="91.52" x2="92.48" y1="52.42" y2="123.58" gradientUnits="userSpaceOnUse"><stop offset="0" stop-color="#727dff"/><stop offset="1" stop-color="#3d1bad"/></linearGradient><linearGradient id="87wph" x1="65.52" x2="66.47" y1="75.68" y2="90.74" gradientUnits="userSpaceOnUse"><stop offset="0" stop-color="#727dff"/><stop offset="1" stop-color="#3d1bad"/></linearGradient><linearGradient id="87wpi" x1="65.52" x2="66.47" y1="93.47" y2="108.53" gradientUnits="userSpaceOnUse"><stop offset="0" stop-color="#727dff"/><stop offset="1" stop-color="#3d1bad"/></linearGradient></defs><g><g><g filter="url(#87wpa)"><path fill="none" d="M58 23h70c16.59 0 30 13.41 30 30v70c0 16.59-13.41 30-30 30H58c-16.59 0-30-13.41-30-30V53c0-16.59 13.41-30 30-30z" mask="url(&quot;#87wpb&quot;)"/><path fill-opacity=".16" d="M58 23h70c16.59 0 30 13.41 30 30v70c0 16.59-13.41 30-30 30H58c-16.59 0-30-13.41-30-30V53c0-16.59 13.41-30 30-30z"/></g><path fill="url(#87wpc)" d="M58 23h70c16.59 0 30 13.41 30 30v70c0 16.59-13.41 30-30 30H58c-16.59 0-30-13.41-30-30V53c0-16.59 13.41-30 30-30z"/></g><g><g><path fill="url(#87wpd)" d="M100.211 94.843a5.486 5.486 0 0 1-5.187-3.736l-7.13 2.025v11.29H92V97.58h2.737v6.842h10.948V97.58h2.737v6.842h4.106v-11.29l-7.13-2.025a5.487 5.487 0 0 1-5.187 3.736z"/></g><g><path fill="url(#87wpe)" d="M97.775 85.044c.338.142.7.216 1.068.219h2.737c.366-.003.73-.077 1.067-.22a2.755 2.755 0 0 0 1.67-2.517v-5.474a2.746 2.746 0 0 0-2.737-2.738h-2.737a2.746 2.746 0 0 0-2.738 2.738v5.474a2.755 2.755 0 0 0 1.67 2.518z"/></g><g><path fill="url(#87wpf)" d="M101.58 88h-2.737a4.721 4.721 0 0 1-.767-.055l-.588 1.629a2.73 2.73 0 0 0 5.447 0l-.59-1.629c-.253.04-.509.058-.765.055z"/></g><g><path fill="url(#87wpg)" d="M119.37 52.418a4.117 4.117 0 0 1 4.106 4.105v62.953a4.117 4.117 0 0 1-4.106 4.106H67.366a4.118 4.118 0 0 1-4.106-4.106v-8.211h2.737v8.211a1.373 1.373 0 0 0 1.369 1.369h9.58v-65.69h-9.58a1.373 1.373 0 0 0-1.369 1.368V70.21h5.475v2.737H60.523v-2.737h2.737V56.523a4.118 4.118 0 0 1 4.106-4.105zm-4.105 39.687c0-.612-.409-1.15-.999-1.314l-8.895-2.545-.493-1.355a5.45 5.45 0 0 0 2.176-4.366v-5.473a5.472 5.472 0 0 0-5.474-5.475h-2.737a5.473 5.473 0 0 0-5.475 5.475v5.473a5.452 5.452 0 0 0 2.176 4.366l-.492 1.355-8.896 2.545c-.59.164-.999.702-.999 1.314v13.686a1.373 1.373 0 0 0 1.369 1.368h27.37a1.372 1.372 0 0 0 1.369-1.368z"/></g><g><path fill="url(#87wph)" d="M71.472 88h-5.475V75.683H63.26V88h-2.737v2.737h10.949z"/></g><g><path fill="url(#87wpi)" d="M71.472 105.791h-5.475V93.474H63.26v12.317h-2.737v2.737h10.949z"/></g></g></g></svg>