<svg xmlns="http://www.w3.org/2000/svg" width="186" height="186" viewBox="0 0 186 186"><defs><mask id="92u5b" width="2" height="2" x="-1" y="-1"><path fill="#fff" d="M28 23h130v130H28z"/><path d="M58 23h70c16.59 0 30 13.41 30 30v70c0 16.59-13.41 30-30 30H58c-16.59 0-30-13.41-30-30V53c0-16.59 13.41-30 30-30z"/></mask><filter id="92u5a" width="220" height="225" x="-17" y="-22" filterUnits="userSpaceOnUse"><feOffset dy="5" in="SourceGraphic" result="FeOffset1209Out"/><feGaussianBlur in="FeOffset1209Out" result="FeGaussianBlur1210Out" stdDeviation="14 14"/></filter><linearGradient id="92u5c" x1="93" x2="93" y1="23" y2="153" gradientUnits="userSpaceOnUse"><stop offset="0" stop-color="#485dff"/><stop offset="1" stop-color="#417cff"/></linearGradient></defs><g><g><g filter="url(#92u5a)"><path fill="none" d="M58 23h70c16.59 0 30 13.41 30 30v70c0 16.59-13.41 30-30 30H58c-16.59 0-30-13.41-30-30V53c0-16.59 13.41-30 30-30z" mask="url(&quot;#92u5b&quot;)"/><path fill-opacity=".16" d="M58 23h70c16.59 0 30 13.41 30 30v70c0 16.59-13.41 30-30 30H58c-16.59 0-30-13.41-30-30V53c0-16.59 13.41-30 30-30z"/></g><path fill="url(#92u5c)" d="M58 23h70c16.59 0 30 13.41 30 30v70c0 16.59-13.41 30-30 30H58c-16.59 0-30-13.41-30-30V53c0-16.59 13.41-30 30-30z"/></g><g><path fill="#fff" d="M125.793 64.589v49.124c0 4.312-3.506 7.818-7.818 7.818h-51.08c-4.311 0-7.817-3.506-7.817-7.818V57.031c0-1.08.874-2.215 1.954-2.215h51.079c1.08 0 1.955.875 1.955 1.955v5.863h9.772c1.08 0 1.955.875 1.955 1.955zm-21.5 45.215H68.85c-2.587 0-2.576 3.91 0 3.91h35.443c2.587 0 2.576-3.91 0-3.91zm0-7.818H68.85c-2.587 0-2.576 3.91 0 3.91h35.443c2.587 0 2.576-3.91 0-3.91zM68.85 89.998h11.727c2.587 0 2.577-3.909 0-3.909H68.85c-2.587 0-2.576 3.91 0 3.91zm0-7.818h11.727c2.587 0 2.577-3.91 0-3.91H68.85c-2.587 0-2.576 3.91 0 3.91zm0 15.636h11.727c2.587 0 2.577-3.909 0-3.909H68.85c-2.587 0-2.576 3.91 0 3.91zm37.397-17.59c0-1.081-.874-1.955-1.954-1.955H88.656c-1.08 0-1.954.874-1.954 1.954v15.637c0 1.08.874 1.954 1.954 1.954h15.637c1.08 0 1.954-.874 1.954-1.954zm0-15.637c0-1.08-.874-1.955-1.954-1.955H68.85c-1.08 0-1.954.875-1.954 1.955v7.818c0 1.08.874 1.955 1.954 1.955h35.443c1.08 0 1.954-.875 1.954-1.955zm15.637 1.955h-7.818v47.17c0 5.165 7.818 5.164 7.818 0z"/></g></g></svg>