<svg xmlns="http://www.w3.org/2000/svg" width="186" height="186" viewBox="0 0 186 186"><defs><mask id="yo5qb" width="2" height="2" x="-1" y="-1"><path fill="#fff" d="M28 23h130v130H28z"/><path d="M58 23h70c16.59 0 30 13.41 30 30v70c0 16.59-13.41 30-30 30H58c-16.59 0-30-13.41-30-30V53c0-16.59 13.41-30 30-30z"/></mask><filter id="yo5qa" width="220" height="225" x="-17" y="-22" filterUnits="userSpaceOnUse"><feOffset dy="5" in="SourceGraphic" result="FeOffset1025Out"/><feGaussianBlur in="FeOffset1025Out" result="FeGaussianBlur1026Out" stdDeviation="14 14"/></filter><linearGradient id="yo5qc" x1="93" x2="93" y1="23" y2="153" gradientUnits="userSpaceOnUse"><stop offset="0" stop-color="#64dbff"/><stop offset="1" stop-color="#4294f4"/></linearGradient></defs><g><g><g><g filter="url(#yo5qa)"><path fill="none" d="M58 23h70c16.59 0 30 13.41 30 30v70c0 16.59-13.41 30-30 30H58c-16.59 0-30-13.41-30-30V53c0-16.59 13.41-30 30-30z" mask="url(&quot;#yo5qb&quot;)"/><path fill-opacity=".16" d="M58 23h70c16.59 0 30 13.41 30 30v70c0 16.59-13.41 30-30 30H58c-16.59 0-30-13.41-30-30V53c0-16.59 13.41-30 30-30z"/></g><path fill="url(#yo5qc)" d="M58 23h70c16.59 0 30 13.41 30 30v70c0 16.59-13.41 30-30 30H58c-16.59 0-30-13.41-30-30V53c0-16.59 13.41-30 30-30z"/></g><g><g><path fill="#fff" d="M76 48h36c.552 0 1 .447 1 1v3c0 .553-.448 1-1 1H76a1 1 0 0 1-1-1v-3a1 1 0 0 1 1-1z"/></g><g><path fill="#fff" d="M94.878 66.656l-.92-1.864-.919 1.863c-.184.373-.54.632-.951.691l-2.055.299 1.487 1.449c.297.29.434.708.364 1.118l-.352 2.047 1.839-.966a1.264 1.264 0 0 1 1.174 0l1.84.967-.351-2.048c-.07-.41.065-.827.362-1.117l1.488-1.45-2.055-.299a1.262 1.262 0 0 1-.95-.69z"/></g><g><path fill="#fff" d="M93.958 84.672c-8.37 0-15.155-6.785-15.155-15.155V55.624h30.31v13.893c0 8.37-6.785 15.155-15.155 15.155zm7.52-17.005a1.263 1.263 0 0 0-.7-2.154l-3.929-.57-1.759-3.563a1.314 1.314 0 0 0-2.264 0l-1.758 3.562-3.931.571a1.263 1.263 0 0 0-.7 2.155l2.844 2.772-.671 3.915a1.263 1.263 0 0 0 1.833 1.331l3.515-1.848 3.517 1.848a1.263 1.263 0 0 0 1.831-1.331l-.671-3.915 2.844-2.773z"/></g><g><path fill="#fff" d="M111.64 61.939h1.262v10.103a5.027 5.027 0 0 1-2.702 4.471 18.345 18.345 0 0 1-1.718 3.082 7.589 7.589 0 0 0 6.946-7.553V60.676a1.267 1.267 0 0 0-1.263-1.263h-2.525z"/></g><g><path fill="#fff" d="M79.434 79.595a18.331 18.331 0 0 1-1.717-3.082 5.026 5.026 0 0 1-2.703-4.47V61.938h1.263v-2.526H73.75a1.267 1.267 0 0 0-1.263 1.263v11.366a7.589 7.589 0 0 0 6.946 7.553z"/></g><g><path fill="#fff" d="M93.958 87.198a17.48 17.48 0 0 1-6.315-1.175v4.964a3.49 3.49 0 0 1-.227 1.262H100.5a3.499 3.499 0 0 1-.227-1.262v-4.964a17.48 17.48 0 0 1-6.315 1.175z"/></g><g><path fill="#fff" d="M108.95 98.564a5.042 5.042 0 0 0-4.888-3.789H83.854a5.042 5.042 0 0 0-4.887 3.789z"/></g><g><path fill="#fff" d="M111.64 123.823h11.366a1.267 1.267 0 0 0 1.263-1.263v-3.789h-12.63z"/></g><g><path fill="#fff" d="M123.006 101.09H72.488c-6.278 0-11.366 5.089-11.366 11.367 0 6.277 5.088 11.366 11.366 11.366h21.47v-5.052h-21.47a6.315 6.315 0 1 1 0-12.63h51.78v-3.788a1.267 1.267 0 0 0-1.262-1.263z"/></g><g><path fill="#fff" d="M96.484 127.612a1.262 1.262 0 0 0 2.02 1.01l4.295-3.22 4.294 3.22a1.262 1.262 0 0 0 2.02-1.01v-13.893h-12.63z"/></g><g><path fill="#fff" d="M112 113h8v3h-8z"/></g><g><path fill="#fff" d="M72.488 111.194h47.992v-2.526H72.488a3.789 3.789 0 1 0 0 7.577h21.47v-2.526h-21.47a1.263 1.263 0 1 1 0-2.525z"/></g></g></g></g></svg>