<svg xmlns="http://www.w3.org/2000/svg" width="186" height="186" viewBox="0 0 186 186"><defs><mask id="ordmb" width="2" height="2" x="-1" y="-1"><path fill="#fff" d="M28 23h130v130H28z"/><path d="M57.999 23h70c16.59 0 30 13.41 30 30v70c0 16.59-13.41 30-30 30H58c-16.59 0-30-13.41-30-30V53c0-16.59 13.41-30 30-30z"/></mask><filter id="ordma" width="220" height="225" x="-17" y="-22" filterUnits="userSpaceOnUse"><feOffset dy="5" in="SourceGraphic" result="FeOffset1162Out"/><feGaussianBlur in="FeOffset1162Out" result="FeGaussianBlur1163Out" stdDeviation="14 14"/></filter><linearGradient id="ordmc" x1="93" x2="93" y1="23" y2="153" gradientUnits="userSpaceOnUse"><stop offset="0" stop-color="#ffb871"/><stop offset="1" stop-color="#ff7334"/></linearGradient></defs><g><g><g filter="url(#ordma)"><path fill="none" d="M57.999 23h70c16.59 0 30 13.41 30 30v70c0 16.59-13.41 30-30 30H58c-16.59 0-30-13.41-30-30V53c0-16.59 13.41-30 30-30z" mask="url(&quot;#ordmb&quot;)"/><path fill-opacity=".16" d="M57.999 23h70c16.59 0 30 13.41 30 30v70c0 16.59-13.41 30-30 30H58c-16.59 0-30-13.41-30-30V53c0-16.59 13.41-30 30-30z"/></g><path fill="url(#ordmc)" d="M57.999 23h70c16.59 0 30 13.41 30 30v70c0 16.59-13.41 30-30 30H58c-16.59 0-30-13.41-30-30V53c0-16.59 13.41-30 30-30z"/></g><g><g><path fill="#fff" d="M131.027 61.819v26.55a7.08 7.08 0 0 1-7.08 7.08h-11.351l8.638 23.521c.55 1.495-.577 3.03-2.114 3.03a2.254 2.254 0 0 1-2.116-1.477l-9.209-25.073h-1.579L97.1 120.516A2.251 2.251 0 0 1 94.984 122c-1.645 0-2.626-1.629-2.118-3.024l8.555-23.526h-3.244c.367-1.27.483-2.581.353-3.882l4.913-9.83a6.757 6.757 0 0 0-3.022-9.07 6.77 6.77 0 0 0-9.071 3.025l-2.757 5.514-5.517-2.743V61.82a7.08 7.08 0 0 1 7.08-7.08h33.791a7.08 7.08 0 0 1 7.08 7.08zm-9.655 21.724a2.252 2.252 0 0 0-2.253-2.253h-10.11a2.253 2.253 0 1 0 0 4.506h10.11a2.253 2.253 0 0 0 2.253-2.253zm0-8.448a2.253 2.253 0 0 0-2.253-2.254h-10.11a2.254 2.254 0 0 0 0 4.507h10.11a2.252 2.252 0 0 0 2.253-2.253zm0-8.448a2.253 2.253 0 0 0-2.253-2.253H94.984a2.253 2.253 0 1 0 0 4.507h24.135a2.253 2.253 0 0 0 2.253-2.254z"/></g><g><path fill="#fff" d="M93.76 94.483a5.822 5.822 0 0 0 .06-3.576l5.593-11.184a2.254 2.254 0 0 0-4.031-2.015l-4.77 9.537c-2.85-1.419-7.182-3.572-10.67-5.308-3.247-1.614-5.564-3.062-9.516-3.062h-1.992a9.79 9.79 0 0 0 7.623-3.633 9.758 9.758 0 0 0 2.192-6.18 9.815 9.815 0 0 0-9.816-9.816c-5.42 0-9.813 4.394-9.813 9.816a9.775 9.775 0 0 0 2.668 6.725 9.783 9.783 0 0 0 7.145 3.09c-3.776 0-7.467 1.529-10.122 4.191a14.207 14.207 0 0 0-4.198 10.129v7.24c0 3.118 2.024 5.77 4.827 6.714v12.595a2.253 2.253 0 0 0 2.253 2.253h14.481a2.253 2.253 0 0 0 2.254-2.253V94.428l7.214 3.607a6.2 6.2 0 0 0 5.111.193 6.157 6.157 0 0 0 3.498-3.718l.009-.027z"/></g></g></g></svg>