<svg xmlns="http://www.w3.org/2000/svg" width="186" height="186" viewBox="0 0 186 186"><defs><mask id="b0zyb" width="2" height="2" x="-1" y="-1"><path fill="#fff" d="M28 23h130v130H28z"/><path d="M58 23h70c16.59 0 30 13.41 30 30v70c0 16.59-13.41 30-30 30H58c-16.59 0-30-13.41-30-30V53c0-16.59 13.41-30 30-30z"/></mask><filter id="b0zya" width="220" height="225" x="-17" y="-22" filterUnits="userSpaceOnUse"><feOffset dy="5" in="SourceGraphic" result="FeOffset1676Out"/><feGaussianBlur in="FeOffset1676Out" result="FeGaussianBlur1677Out" stdDeviation="14 14"/></filter><linearGradient id="b0zyc" x1="93" x2="93" y1="23" y2="153" gradientUnits="userSpaceOnUse"><stop offset="0" stop-color="#fff"/><stop offset="1" stop-color="#d8f0fd"/></linearGradient><linearGradient id="b0zyd" x1="92.09" x2="92.98" y1="96.66" y2="129.71" gradientUnits="userSpaceOnUse"><stop offset="0" stop-color="#485dff"/><stop offset="1" stop-color="#417cff"/></linearGradient><linearGradient id="b0zye" x1="72.55" x2="72.63" y1="55.15" y2="65.22" gradientUnits="userSpaceOnUse"><stop offset="0" stop-color="#485dff"/><stop offset="1" stop-color="#417cff"/></linearGradient><linearGradient id="b0zyf" x1="72.92" x2="72.16" y1="65.5" y2="71.38" gradientUnits="userSpaceOnUse"><stop offset="0" stop-color="#485dff"/><stop offset="1" stop-color="#417cff"/></linearGradient><linearGradient id="b0zyg" x1="72.9" x2="72.28" y1="72.65" y2="74.04" gradientUnits="userSpaceOnUse"><stop offset="0" stop-color="#485dff"/><stop offset="1" stop-color="#417cff"/></linearGradient><linearGradient id="b0zyh" x1="71" x2="71.25" y1="61.29" y2="103.84" gradientUnits="userSpaceOnUse"><stop offset="0" stop-color="#485dff"/><stop offset="1" stop-color="#417cff"/></linearGradient><linearGradient id="b0zyi" x1="72.8" x2="72.32" y1="71.73" y2="72.05" gradientUnits="userSpaceOnUse"><stop offset="0" stop-color="#485dff"/><stop offset="1" stop-color="#417cff"/></linearGradient><linearGradient id="b0zyj" x1="112.45" x2="112.52" y1="60.19" y2="70.26" gradientUnits="userSpaceOnUse"><stop offset="0" stop-color="#485dff"/><stop offset="1" stop-color="#417cff"/></linearGradient><linearGradient id="b0zyk" x1="112.92" x2="112.16" y1="70.54" y2="76.42" gradientUnits="userSpaceOnUse"><stop offset="0" stop-color="#485dff"/><stop offset="1" stop-color="#417cff"/></linearGradient><linearGradient id="b0zyl" x1="112.79" x2="112.18" y1="77.69" y2="79.08" gradientUnits="userSpaceOnUse"><stop offset="0" stop-color="#485dff"/><stop offset="1" stop-color="#417cff"/></linearGradient><linearGradient id="b0zym" x1="113.82" x2="114.07" y1="66.33" y2="108.88" gradientUnits="userSpaceOnUse"><stop offset="0" stop-color="#485dff"/><stop offset="1" stop-color="#417cff"/></linearGradient><linearGradient id="b0zyn" x1="112.76" x2="112.28" y1="76.77" y2="77.09" gradientUnits="userSpaceOnUse"><stop offset="0" stop-color="#485dff"/><stop offset="1" stop-color="#417cff"/></linearGradient><linearGradient id="b0zyo" x1="92.34" x2="92.75" y1="45.57" y2="55.98" gradientUnits="userSpaceOnUse"><stop offset="0" stop-color="#485dff"/><stop offset="1" stop-color="#417cff"/></linearGradient><linearGradient id="b0zyp" x1="92.88" x2="92.53" y1="64.59" y2="66.24" gradientUnits="userSpaceOnUse"><stop offset="0" stop-color="#485dff"/><stop offset="1" stop-color="#417cff"/></linearGradient><linearGradient id="b0zyq" x1="92.59" x2="92.64" y1="56.26" y2="63.07" gradientUnits="userSpaceOnUse"><stop offset="0" stop-color="#485dff"/><stop offset="1" stop-color="#417cff"/></linearGradient><linearGradient id="b0zyr" x1="92.52" x2="92.9" y1="51.91" y2="95.86" gradientUnits="userSpaceOnUse"><stop offset="0" stop-color="#485dff"/><stop offset="1" stop-color="#417cff"/></linearGradient><linearGradient id="b0zys" x1="92.76" x2="92.57" y1="63.49" y2="63.87" gradientUnits="userSpaceOnUse"><stop offset="0" stop-color="#485dff"/><stop offset="1" stop-color="#417cff"/></linearGradient></defs><g><g><g filter="url(#b0zya)"><path fill="none" d="M58 23h70c16.59 0 30 13.41 30 30v70c0 16.59-13.41 30-30 30H58c-16.59 0-30-13.41-30-30V53c0-16.59 13.41-30 30-30z" mask="url(&quot;#b0zyb&quot;)"/><path fill-opacity=".16" d="M58 23h70c16.59 0 30 13.41 30 30v70c0 16.59-13.41 30-30 30H58c-16.59 0-30-13.41-30-30V53c0-16.59 13.41-30 30-30z"/></g><path fill="url(#b0zyc)" d="M58 23h70c16.59 0 30 13.41 30 30v70c0 16.59-13.41 30-30 30H58c-16.59 0-30-13.41-30-30V53c0-16.59 13.41-30 30-30z"/></g><g><g><g><path fill="url(#b0zyd)" d="M102.156 96.658h-.002v12.92l18.825-.002v20.135H64.093v-25.24l18.866.003v-7.818zm-24.458 26.113v.001h.001v-2.311h-4.531v-.038l1.107-.925c1.742-1.554 3.203-3.164 3.203-5.179 0-2.185-1.498-3.776-4.218-3.776-1.628 0-3.033.555-3.94 1.241l.796 2.018c.629-.48 1.536-1 2.572-1 1.386 0 1.977.777 1.977 1.757-.037 1.403-1.314 2.754-3.938 5.105l-1.555 1.403v1.704zm35.484-.435c0 .904-.737 1.61-2.199 1.61-1.147 0-2.293-.481-2.794-.74l-.572 2.108c.7.444 2.014.852 3.567.852 3.055 0 4.923-1.556 4.925-3.686 0-1.567-1.167-2.657-2.612-2.919v-.038c1.482-.514 2.202-1.516 2.202-2.79 0-1.645-1.425-2.997-3.995-2.997-1.556 0-2.999.443-3.72.906l.576 2.036c.497-.298 1.532-.72 2.513-.72 1.185 0 1.777.538 1.777 1.255 0 1.015-1.203 1.369-2.146 1.386h-1.09v2.018h1.146c1.236 0 2.42.536 2.422 1.72zm-19.67-21.634H91.18l-3.182 1.478.462 2.113 2.296-1.094h.035v9.532h2.722z"/></g><g><path fill="url(#b0zye)" d="M72.588 65.224a5.034 5.034 0 0 1-5.038-5.039 5.034 5.034 0 0 1 5.038-5.038 5.034 5.034 0 0 1 5.039 5.039 5.034 5.034 0 0 1-5.039 5.038z"/></g><g><path fill="url(#b0zyf)" d="M73.843 65.517l-1.255 1.263-1.215-1.276c-.006 0-.009 0-.013.002-.371.249-.877.497-1.445.72l3.056 5.155h.29l-.619-1.048 2.515-4.284a5.607 5.607 0 0 0-1.314-.532z"/></g><g><path fill="url(#b0zyg)" d="M72.588 74.038a.692.692 0 1 1-.001-1.383.692.692 0 0 1 .001 1.383z"/></g><g><path fill="url(#b0zyh)" d="M83.228 80.512c-1.132-7.706-2.831-11.153-6.86-13.783l-2.707 4.665V72.4h-.228a1.276 1.276 0 0 1-.846 2.236 1.282 1.282 0 0 1-1.282-1.28c0-.381.17-.72.434-.956h-.289v-.862l-2.883-4.867c-1.41.383-2.876.536-3.6.154-1.036-.551-1.739-1.864-2.082-3.905a1.956 1.956 0 0 0-3.858.652c.557 3.302 1.94 5.56 4.11 6.71.999.53 2.12.793 3.336.793a9.49 9.49 0 0 0 .958-.064V81.02c0 .6.134 1.188.362 1.69l-.01 18.821a2.312 2.312 0 1 0 4.623 0l-.001-16.072.327.002v16.07a2.313 2.313 0 0 0 4.624 0l-.006-18.813c.25-.519.394-1.443.394-2.07v-6.365c.625 1.562 1.16 3.708 1.613 6.798a1.957 1.957 0 0 0 3.871-.569z"/></g><g><path fill="url(#b0zyi)" d="M73.316 71.729h-.142l-.02.014h-1.358v.311h1.52z"/></g><g><path fill="url(#b0zyj)" d="M112.486 60.187a5.038 5.038 0 1 1 0 10.076 5.038 5.038 0 0 1 0-10.076z"/></g><g><path fill="url(#b0zyk)" d="M113.714 70.545c-.004-.002-.007-.002-.013-.002l-1.215 1.276-1.255-1.264a5.668 5.668 0 0 0-1.313.532l2.515 4.282-.619 1.048h.29l3.057-5.155c-.57-.22-1.074-.47-1.447-.717z"/></g><g><path fill="url(#b0zyl)" d="M112.485 77.693a.692.692 0 1 1-.692.692c0-.383.311-.692.692-.692z"/></g><g><path fill="url(#b0zym)" d="M124.444 66.357a1.952 1.952 0 0 0-2.253 1.602c-.345 2.042-1.047 3.354-2.083 3.904-.724.383-2.19.23-3.6-.153l-2.883 4.866v.864h-.295a1.274 1.274 0 0 1-.846 2.235c-.706 0-1.28-.573-1.28-1.281 0-.38.168-.72.434-.954h-.228V76.43l-2.707-4.664c-4.03 2.628-5.729 6.077-6.862 13.783a1.957 1.957 0 0 0 3.873.567c.451-3.088.987-5.234 1.614-6.796v6.364c0 .628.108 1.576.358 2.094l-.006 18.79a2.312 2.312 0 0 0 4.624 0v-16.07h.327l-.001 16.07a2.31 2.31 0 0 0 4.622 0l-.009-18.789c.229-.5.395-1.473.395-2.073V76.05c.324.034.648.062.963.062 1.215 0 2.335-.264 3.336-.795 2.169-1.148 3.552-3.406 4.11-6.71a1.955 1.955 0 0 0-1.603-2.251z"/></g><g><path fill="url(#b0zyn)" d="M113.278 76.782h-1.36l-.019-.015h-.142v.326h1.52z"/></g><g><g><path fill="url(#b0zyo)" d="M92.549 55.977a5.203 5.203 0 0 0 5.203-5.205 5.203 5.203 0 1 0-10.407 0 5.205 5.205 0 0 0 5.204 5.205z"/></g><g><path fill="url(#b0zyp)" d="M92.706 66.238a.823.823 0 1 1 0-1.649.824.824 0 1 1 0 1.649z"/></g><g><path fill="url(#b0zyq)" d="M93.845 56.278l-1.297 1.305-1.255-1.318c-.007 0-.01 0-.013.003-.282.067-.865.433-1.692.777l3.57 6.028h.348l-.739-1.247 2.874-4.895c-.876-.309-1.562-.596-1.796-.653z"/></g><g><path fill="url(#b0zyr)" d="M105.21 52.035a2.03 2.03 0 0 0-2.329 1.657c-.323 1.925-.93 3.175-1.8 3.717-.886.585-2.394.399-3.813.026l-3.282 5.653v1.201h-.272c.316.28.522.684.522 1.138a1.53 1.53 0 0 1-1.527 1.527 1.53 1.53 0 0 1-1.529-1.527c0-.455.205-.858.52-1.138h-.35v-1.028l-3.387-5.717a7.167 7.167 0 0 1-3.63-.231c-.871-.54-1.477-1.792-1.801-3.716a2.021 2.021 0 0 0-3.986.673c.53 3.162 1.727 5.277 3.653 6.477 1.207.748 2.534 1.025 3.89 1.025.376 0 .756-.026 1.134-.066V72.29c0 .679.077 1.23.356 1.786l.001 19.395a2.389 2.389 0 1 0 4.777 0l-.002-16.61.34.001v16.61a2.388 2.388 0 1 0 4.774 0l-.018-19.406c.215-.5.425-1.182.425-1.774V61.766c.482.06.964.103 1.443.103 1.355 0 2.684-.279 3.893-1.027 1.925-1.195 3.122-3.314 3.656-6.477a2.023 2.023 0 0 0-1.659-2.33z"/></g><g><path fill="url(#b0zys)" d="M93.571 63.486h-.168l-.025.016H91.76v.372h1.81z"/></g></g></g></g></g></svg>