<svg xmlns="http://www.w3.org/2000/svg" width="186" height="186" viewBox="0 0 186 186"><defs><mask id="3ys1b" width="2" height="2" x="-1" y="-1"><path fill="#fff" d="M28 23h130v130H28z"/><path d="M58 23h70c16.59 0 30 13.41 30 30v70c0 16.59-13.41 30-30 30H58c-16.59 0-30-13.41-30-30V53c0-16.59 13.41-30 30-30z"/></mask><filter id="3ys1a" width="220" height="225" x="-17" y="-22" filterUnits="userSpaceOnUse"><feOffset dy="5" in="SourceGraphic" result="FeOffset2039Out"/><feGaussianBlur in="FeOffset2039Out" result="FeGaussianBlur2040Out" stdDeviation="14 14"/></filter><linearGradient id="3ys1c" x1="93" x2="93" y1="23" y2="153" gradientUnits="userSpaceOnUse"><stop offset="0" stop-color="#fff"/><stop offset="1" stop-color="#ffdbbc"/></linearGradient><linearGradient id="3ys1d" x1="91.8" x2="92.65" y1="51.58" y2="102.8" gradientUnits="userSpaceOnUse"><stop offset="0" stop-color="#ffb871"/><stop offset="1" stop-color="#ff7334"/></linearGradient><linearGradient id="3ys1e" x1="128.22" x2="127.48" y1="107.56" y2="127.92" gradientUnits="userSpaceOnUse"><stop offset="0" stop-color="#ffb871"/><stop offset="1" stop-color="#ff7334"/></linearGradient><linearGradient id="3ys1f" x1="92.23" x2="92.22" y1="82.95" y2="102.47" gradientUnits="userSpaceOnUse"><stop offset="0" stop-color="#ffb871"/><stop offset="1" stop-color="#ff7334"/></linearGradient></defs><g><g><g><g filter="url(#3ys1a)"><path fill="none" d="M58 23h70c16.59 0 30 13.41 30 30v70c0 16.59-13.41 30-30 30H58c-16.59 0-30-13.41-30-30V53c0-16.59 13.41-30 30-30z" mask="url(&quot;#3ys1b&quot;)"/><path fill-opacity=".16" d="M58 23h70c16.59 0 30 13.41 30 30v70c0 16.59-13.41 30-30 30H58c-16.59 0-30-13.41-30-30V53c0-16.59 13.41-30 30-30z"/></g><path fill="url(#3ys1c)" d="M58 23h70c16.59 0 30 13.41 30 30v70c0 16.59-13.41 30-30 30H58c-16.59 0-30-13.41-30-30V53c0-16.59 13.41-30 30-30z"/></g><g><g><path fill="url(#3ys1d)" d="M91.33 87.044a2.557 2.557 0 0 0 1.79 0l32.185-12.07v27.827a10.385 10.385 0 0 1 2.545-.327c.88 0 1.727.121 2.545.327V73.066l3.608-1.29c2.193-.824 2.197-3.94 0-4.766L93.12 51.742a2.577 2.577 0 0 0-1.79 0L50.446 67.01c-2.192.824-2.196 3.94 0 4.766z"/></g><g><path fill="url(#3ys1e)" d="M127.85 107.564c-4.351 0-7.634 5.469-7.634 12.723v5.09a2.543 2.543 0 0 0 2.544 2.544h10.18a2.543 2.543 0 0 0 2.544-2.545v-5.089c0-7.254-3.283-12.723-7.634-12.723z"/></g><g><path fill="url(#3ys1f)" d="M118.544 82.946l-23.638 8.865a7.65 7.65 0 0 1-5.345.005l-23.657-8.87c-2.122 7.778-1.582 12.884-1.671 14.439 0 1.8 1.83 3.029 3.486 2.363.06-.022 6.01-2.363 11.782-2.363 5.37 0 11.08 4.488 11.138 4.535.91.724 2.234.747 3.176-.003 1.575-1.262 6.647-4.533 11.133-4.533 5.772 0 11.722 2.341 11.781 2.364 1.653.664 3.487-.56 3.487-2.364-.085-1.491.438-6.706-1.672-14.438z"/></g></g></g></g></svg>