<svg xmlns="http://www.w3.org/2000/svg" width="186" height="186" viewBox="0 0 186 186"><defs><mask id="yldhb" width="2" height="2" x="-1" y="-1"><path fill="#fff" d="M28 23h130v130H28z"/><path d="M58 23h70c16.59 0 30 13.41 30 30v70c0 16.59-13.41 30-30 30H58c-16.59 0-30-13.41-30-30V53c0-16.59 13.41-30 30-30z"/></mask><filter id="yldha" width="220" height="225" x="-17" y="-22" filterUnits="userSpaceOnUse"><feOffset dy="5" in="SourceGraphic" result="FeOffset1251Out"/><feGaussianBlur in="FeOffset1251Out" result="FeGaussianBlur1252Out" stdDeviation="14 14"/></filter><linearGradient id="yldhc" x1="93" x2="93" y1="23" y2="153" gradientUnits="userSpaceOnUse"><stop offset="0" stop-color="#f77"/><stop offset="1" stop-color="#f02e2e"/></linearGradient></defs><g><g><g><g filter="url(#yldha)"><path fill="none" d="M58 23h70c16.59 0 30 13.41 30 30v70c0 16.59-13.41 30-30 30H58c-16.59 0-30-13.41-30-30V53c0-16.59 13.41-30 30-30z" mask="url(&quot;#yldhb&quot;)"/><path fill-opacity=".16" d="M58 23h70c16.59 0 30 13.41 30 30v70c0 16.59-13.41 30-30 30H58c-16.59 0-30-13.41-30-30V53c0-16.59 13.41-30 30-30z"/></g><path fill="url(#yldhc)" d="M58 23h70c16.59 0 30 13.41 30 30v70c0 16.59-13.41 30-30 30H58c-16.59 0-30-13.41-30-30V53c0-16.59 13.41-30 30-30z"/></g><g><g><g><path fill="#fff" d="M94.254 91.5c1-.8 2.3-1.5 3.8-1.8v-.3c-1.5.3-2.8 1-3.8 1.8z"/></g><g><path fill="#fff" d="M100.155 84.499V94.5c-3 0-5.601 1.1-7.101 2.6-1.501-1.6-4.202-2.6-7.103-2.6V84.398c3.001 0 5.602 1.1 7.103 2.601 1.5-1.5 4.1-2.5 7.101-2.5zM92.853 95.9c-2.6-2.5-5.801-2.7-6.101-2.7v.6c2.3.2 4.5.9 6.101 2.1zm0-.3c-2.4-2.7-5.501-3.1-6.101-3.2v.6c.3 0 3.5.1 6.101 2.6zm0-.5V87.9l-.4-.4c-1.3-1.3-3.4-2.1-5.701-2.3V92c.5.1 3.6.5 6.101 3.101zm6.402-1.9c-.3 0-3.501.2-6.102 2.7 1.6-1.2 3.802-2 6.102-2.1zm0-.8c-.6.1-3.7.5-6.102 3.2 2.6-2.4 5.802-2.6 6.102-2.6zm0-.3v-6.702c-2.3.2-4.401 1-5.701 2.3l-.4.4v7.102c2.5-2.6 5.5-3 6.1-3.1z"/></g><g><path fill="#fff" d="M94.254 90.2c1-.8 2.3-1.5 3.8-1.8v-.3c-1.5.3-2.8 1-3.8 1.8z"/></g><g><path fill="#fff" d="M94.254 89c1-.8 2.3-1.5 3.8-1.8v-.301c-1.5.3-2.8 1-3.8 1.8z"/></g><g><path fill="#fff" d="M87.952 87.2c1.5.4 2.801 1 3.8 1.8v-.4c-.999-.8-2.4-1.4-3.8-1.801z"/></g><g><path fill="#fff" d="M94.254 92.7c1-.8 2.3-1.5 3.8-1.8v-.3c-1.5.3-2.8 1-3.8 1.8z"/></g><g><path fill="#fff" d="M87.952 88.4c1.5.4 2.801 1 3.8 1.8v-.4c-.999-.8-2.4-1.4-3.8-1.8z"/></g><g><path fill="#fff" d="M87.952 90.9c1.5.4 2.801 1 3.8 1.8v-.4c-.999-.8-2.4-1.4-3.8-1.8z"/></g><g><path fill="#fff" d="M87.952 89.7c1.5.4 2.801 1 3.8 1.8v-.4c-.999-.8-2.4-1.4-3.8-1.8z"/></g></g><g><g><path fill="#fff" d="M80.95 124.109c3.401 0 6.602-.7 9.603-1.9-.6-.401-1.2-.801-1.7-1.301-5.802-4.701-9.503-11.903-9.503-20.005 0-.8 0-1.6.1-2.4v-.201c0-9.803 5.501-18.405 13.604-22.706 8.102 4.401 13.603 13.004 13.603 22.806v.2c6.602-4.1 11.203-11.203 12.003-19.405.1-.8.1-1.6.1-2.4v-.2c-.1-14.104-11.603-25.507-25.706-25.507-13.404 0-24.307 10.103-25.607 23.106.7-.3 1.4-.7 2.1-1 2.901-1.1 6.102-1.8 9.403-1.8 5.201 0 10.002 1.5 14.104 4.2-3.601-1.9-7.703-3-12.104-3-4.1 0-8.002 1-11.402 2.7-.7.4-1.501.8-2.201 1.2-7.302 4.602-12.203 12.704-12.203 21.906 0 14.204 11.603 25.707 25.806 25.707z"/></g><g><path fill="#fff" d="M79.45 98.602c.1 8.902 4.701 16.805 11.603 21.306.6.4 1.3.8 2 1.2h-.1.1c3.601 1.9 7.702 3 12.103 3 14.204 0 25.707-11.502 25.707-25.706 0-8.302-3.9-15.704-10.102-20.405l-.3 2.4a25.569 25.569 0 0 1-13.804 18.205c-3.901 2.5-8.602 3.901-13.604 3.901-5 0-9.702-1.4-13.603-3.9z"/></g></g></g></g></g></svg>