<svg xmlns="http://www.w3.org/2000/svg" width="186" height="186" viewBox="0 0 186 186"><defs><mask id="cyf5b" width="2" height="2" x="-1" y="-1"><path fill="#fff" d="M28 23h130v130H28z"/><path d="M58 23h70c16.59 0 30 13.41 30 30v70c0 16.59-13.41 30-30 30H58c-16.59 0-30-13.41-30-30V53c0-16.59 13.41-30 30-30z"/></mask><filter id="cyf5a" width="220" height="225" x="-17" y="-22" filterUnits="userSpaceOnUse"><feOffset dy="5" in="SourceGraphic" result="FeOffset1347Out"/><feGaussianBlur in="FeOffset1347Out" result="FeGaussianBlur1348Out" stdDeviation="14 14"/></filter><linearGradient id="cyf5c" x1="93" x2="93" y1="23" y2="153" gradientUnits="userSpaceOnUse"><stop offset="0" stop-color="#ff735a"/><stop offset="1" stop-color="#fcbc45"/></linearGradient></defs><g><g><g filter="url(#cyf5a)"><path fill="none" d="M58 23h70c16.59 0 30 13.41 30 30v70c0 16.59-13.41 30-30 30H58c-16.59 0-30-13.41-30-30V53c0-16.59 13.41-30 30-30z" mask="url(&quot;#cyf5b&quot;)"/><path fill-opacity=".16" d="M58 23h70c16.59 0 30 13.41 30 30v70c0 16.59-13.41 30-30 30H58c-16.59 0-30-13.41-30-30V53c0-16.59 13.41-30 30-30z"/></g><path fill="url(#cyf5c)" d="M58 23h70c16.59 0 30 13.41 30 30v70c0 16.59-13.41 30-30 30H58c-16.59 0-30-13.41-30-30V53c0-16.59 13.41-30 30-30z"/></g><g><path fill="#fff" d="M127.596 111.89v5.313c0 .733-.595 1.328-1.328 1.328H59.86a1.328 1.328 0 0 1-1.328-1.328v-5.312c0-.734.595-1.329 1.328-1.329h1.328v-3.984c0-.734.595-1.328 1.329-1.328V93.297H59.86a1.328 1.328 0 0 1-1.168-.638 1.327 1.327 0 0 1 0-1.328l7.968-14.61a1.329 1.329 0 0 1 1.17-.69h9.296v-7.265l-3.36 1.806a1.328 1.328 0 1 1-1.248-2.337l5.312-2.829 13.906-7.438v-7.171c0-.734.594-1.328 1.328-1.328h7.968c.734 0 1.329.594 1.329 1.328v3.984c0 .734-.595 1.328-1.329 1.328h-6.64v1.86l13.905 7.424 5.313 2.829a1.328 1.328 0 1 1-1.249 2.337l-3.36-1.793v7.265h9.297c.474.006.91.264 1.142.677l7.969 14.61c.237.41.237.917 0 1.328-.24.404-.674.65-1.142.65h-2.657v11.954c.734 0 1.328.594 1.328 1.328v3.984h1.329c.733 0 1.328.595 1.328 1.329zM79.783 76.032h26.563v-8.673l-13.281-7.092-13.282 7.092zm0 34.531h6.64v-13.28c0-.735.596-1.329 1.329-1.329h10.625c.734 0 1.328.594 1.328 1.328v13.281h6.64V92.7l-13.28-8.447L79.783 92.7zm41.172-17.265h-11.953v11.953h11.953zM65.174 105.25h11.953V93.297H65.174z"/></g></g></svg>