<svg xmlns="http://www.w3.org/2000/svg" width="112" height="112" viewBox="0 0 112 112"><defs><linearGradient id="v44ha" x1="56" x2="56" y1="0" y2="112" gradientUnits="userSpaceOnUse"><stop offset="0" stop-color="#fff"/><stop offset="1" stop-color="#c0e8c8"/></linearGradient><linearGradient id="v44hb" x1="79.93" x2="79.93" y1="24.8" y2="41.35" gradientUnits="userSpaceOnUse"><stop offset="0" stop-color="#78d062"/><stop offset="1" stop-color="#36b754"/></linearGradient><linearGradient id="v44hc" x1="-228" x2="-228" y1="-695" y2="-695" gradientUnits="userSpaceOnUse"><stop offset="0" stop-color="#78d062"/><stop offset="1" stop-color="#36b754"/></linearGradient><linearGradient id="v44hd" x1="66.14" x2="66.14" y1="46.87" y2="91" gradientUnits="userSpaceOnUse"><stop offset="0" stop-color="#78d062"/><stop offset="1" stop-color="#36b754"/></linearGradient><linearGradient id="v44he" x1="30.28" x2="30.28" y1="46.87" y2="63.42" gradientUnits="userSpaceOnUse"><stop offset="0" stop-color="#78d062"/><stop offset="1" stop-color="#36b754"/></linearGradient><linearGradient id="v44hf" x1="30.28" x2="30.28" y1="77.21" y2="81.34" gradientUnits="userSpaceOnUse"><stop offset="0" stop-color="#78d062"/><stop offset="1" stop-color="#36b754"/></linearGradient><linearGradient id="v44hg" x1="30.28" x2="30.28" y1="85.48" y2="89.62" gradientUnits="userSpaceOnUse"><stop offset="0" stop-color="#78d062"/><stop offset="1" stop-color="#36b754"/></linearGradient><linearGradient id="v44hh" x1="30.28" x2="30.28" y1="68.93" y2="73.07" gradientUnits="userSpaceOnUse"><stop offset="0" stop-color="#78d062"/><stop offset="1" stop-color="#36b754"/></linearGradient></defs><g><g><path fill="url(#v44ha)" d="M20 112c-11.046 0-20-8.954-20-20V20C0 8.954 8.954 0 20 0h72c11.046 0 20 8.954 20 20v72c0 11.046-8.954 20-20 20z"/></g><g><g><path fill="url(#v44hb)" d="M75.786 31.698a2.766 2.766 0 0 1 2.758-2.758 2.766 2.766 0 0 1 2.758 2.758 2.766 2.766 0 0 1-2.758 2.758 2.767 2.767 0 0 1-2.758-2.758zm8.881 3.2a6.854 6.854 0 0 0 .773-3.2 6.898 6.898 0 0 0-6.896-6.896 6.898 6.898 0 0 0-6.896 6.896 6.898 6.898 0 0 0 6.896 6.896c1.158 0 2.259-.276 3.197-.773l2.923 2.924c.406.406.936.607 1.465.607a2.07 2.07 0 0 0 1.462-3.533z"/></g><g><path fill="url(#v44hc)" d="M26.827 41.352h34.478a4.832 4.832 0 0 0 4.827-4.827v-6.896a4.832 4.832 0 0 0-4.827-4.827H26.827A4.832 4.832 0 0 0 22 29.63v6.896a4.832 4.832 0 0 0 4.827 4.827z"/></g><g><path fill="url(#v44hd)" d="M77.165 67.555c0 .772-.442 1.49-1.131 1.848l-15.17 7.585c-.304.138-.635.22-.938.22-.386 0-.745-.11-1.076-.303a2.046 2.046 0 0 1-.993-1.765V59.97c0-.717.359-1.38.993-1.765.607-.387 1.351-.414 2.013-.083l15.17 7.585a2.097 2.097 0 0 1 1.132 1.848zm6.206-20.687H48.893c-2.648 0-4.827 2.18-4.827 4.827v34.478c0 2.648 2.179 4.827 4.827 4.827H83.37c2.648 0 4.827-2.179 4.827-4.827V51.695c0-2.648-2.18-4.827-4.827-4.827z"/></g><g><path fill="url(#v44he)" d="M22 55.143a8.275 8.275 0 1 1 16.55 0 8.275 8.275 0 0 1-16.55 0z"/></g><g><path fill="url(#v44hf)" d="M24.069 81.346H36.48a2.07 2.07 0 0 0 0-4.137H24.069a2.07 2.07 0 0 0 0 4.137z"/></g><g><path fill="url(#v44hg)" d="M24.069 89.621H36.48a2.07 2.07 0 0 0 0-4.137H24.069a2.07 2.07 0 0 0 0 4.137z"/></g><g><path fill="url(#v44hh)" d="M24.069 73.072H36.48a2.07 2.07 0 0 0 0-4.138H24.069a2.07 2.07 0 0 0 0 4.138z"/></g></g></g></svg>