<svg xmlns="http://www.w3.org/2000/svg" width="112" height="112" viewBox="0 0 112 112"><defs><linearGradient id="sqkca" x1="56" x2="56" y1="0" y2="112" gradientUnits="userSpaceOnUse"><stop offset="0" stop-color="#fff"/><stop offset="1" stop-color="#fdd8d8"/></linearGradient><linearGradient id="sqkcb" x1="-1008" x2="-1008" y1="-695" y2="-695" gradientUnits="userSpaceOnUse"><stop offset="0" stop-color="#ffa3a3"/><stop offset="1" stop-color="#f82626"/></linearGradient><linearGradient id="sqkcc" x1="56.15" x2="56.15" y1="63.26" y2="81.89" gradientUnits="userSpaceOnUse"><stop offset="0" stop-color="#ffa3a3"/><stop offset="1" stop-color="#f82626"/></linearGradient><linearGradient id="sqkcd" x1="56.15" x2="56.15" y1="49.22" y2="67.85" gradientUnits="userSpaceOnUse"><stop offset="0" stop-color="#ffa3a3"/><stop offset="1" stop-color="#f82626"/></linearGradient><linearGradient id="sqkce" x1="56.36" x2="56.36" y1="28.46" y2="49.19" gradientUnits="userSpaceOnUse"><stop offset="0" stop-color="#ffa3a3"/><stop offset="1" stop-color="#f82626"/></linearGradient></defs><g><g><path fill="url(#sqkca)" d="M20 112c-11.046 0-20-8.954-20-20V20C0 8.954 8.954 0 20 0h72c11.046 0 20 8.954 20 20v72c0 11.046-8.954 20-20 20z"/></g><g><g><path fill="url(#sqkcb)" d="M81 77.071l-24.848 13.61-24.847-13.61v-53.04H81zM29.37 19.996c-1.114 0-2.102.903-2.102 2.018v56.253c0 .737.444 1.415 1.09 1.77l26.887 14.715a2.058 2.058 0 0 0 1.954 0l26.826-14.715c.647-.354 1.01-1.033 1.01-1.77V22.014c0-1.115-.82-2.018-1.935-2.018z"/></g><g><path fill="url(#sqkcc)" d="M72.927 72.74v-9.482l-16.754 8.828-16.796-8.828v9.46l16.796 9.165z"/></g><g><path fill="url(#sqkcd)" d="M72.927 58.701V49.22l-16.754 8.828-16.796-8.828v9.46l16.796 9.165z"/></g><g><path fill="url(#sqkce)" d="M49.615 49.177l6.747-4.898 6.747 4.909-2.576-7.92 6.746-4.876h-8.34l-2.577-7.931-2.577 7.931h-8.34l6.747 4.878z"/></g></g></g></svg>