<svg xmlns="http://www.w3.org/2000/svg" width="112" height="112" viewBox="0 0 112 112"><defs><linearGradient id="8x5sa" x1="56" x2="56" y1="0" y2="112" gradientUnits="userSpaceOnUse"><stop offset="0" stop-color="#fff"/><stop offset="1" stop-color="#c3d3ff"/></linearGradient><linearGradient id="8x5sb" x1="52.27" x2="47.8" y1="91.5" y2="6.49" gradientUnits="userSpaceOnUse"><stop offset="0" stop-color="#5b6ceb"/><stop offset="1" stop-color="#7bc2ff"/></linearGradient><linearGradient id="8x5sc" x1="92.72" x2="88.25" y1="91.5" y2="36.34" gradientUnits="userSpaceOnUse"><stop offset="0" stop-color="#5b6ceb"/><stop offset="1" stop-color="#7bc2ff"/></linearGradient><linearGradient id="8x5sd" x1="64.59" x2="60.12" y1="91.5" y2="48.62" gradientUnits="userSpaceOnUse"><stop offset="0" stop-color="#5b6ceb"/><stop offset="1" stop-color="#7bc2ff"/></linearGradient><linearGradient id="8x5se" x1="75.07" x2="70.6" y1="91.5" y2="11.78" gradientUnits="userSpaceOnUse"><stop offset="0" stop-color="#5b6ceb"/><stop offset="1" stop-color="#7bc2ff"/></linearGradient><linearGradient id="8x5sf" x1="41.79" x2="37.32" y1="91.5" y2="36.34" gradientUnits="userSpaceOnUse"><stop offset="0" stop-color="#5b6ceb"/><stop offset="1" stop-color="#7bc2ff"/></linearGradient></defs><g><g><path fill="url(#8x5sa)" d="M20 112c-11.046 0-20-8.954-20-20V20C0 8.954 8.954 0 20 0h72c11.046 0 20 8.954 20 20v72c0 11.046-8.954 20-20 20z"/></g><g><g><path fill="url(#8x5sb)" d="M34.157 43.888c.175.357.276.745.299 1.142a3.023 3.023 0 0 1 3.794 2.92l.007 9.09a4.003 4.003 0 0 1 5.126.013l.552.424c.441.34.567.95.295 1.436l-5.362 9.606-1.41 22.98h12.615l-1.34-12.463-5.376-9.626a1.128 1.128 0 0 1 .295-1.441l.553-.428a3.938 3.938 0 0 1 1.468-.779l1.445-24.08c.01-.17.059-.334.141-.482l5.015-8.994a1.736 1.736 0 0 0-2.274.285l-1.535 1.744a1.128 1.128 0 0 1-1.975-.744l-.01-12.005a.767.767 0 0 0-1.533-.043v3.827c0 2.783-.002 5.23 0 5.467a1.116 1.116 0 0 1-1.125 1.119h-.004a1.114 1.114 0 0 1-1.124-1.112c-.001-.237.002-2.682.003-5.47 0-.915.007-1.866.007-2.785 0-.015.012-.03.012-.046v-3.706a.766.766 0 0 0-.791-.737h-.045a.752.752 0 0 0-.775.74v12.013a1.128 1.128 0 0 1-2.255 0v-10.46a.807.807 0 0 0-1.612 0v10.46a1.128 1.128 0 0 1-2.255 0v-6.167c0-.422-.264-.786-.687-.786h-.042a.776.776 0 0 0-.768.774c-.003 1.555.318 9.552.659 18.008z"/></g><g><path fill="url(#8x5sc)" d="M90.446 58.956l-1.535 1.746a1.129 1.129 0 0 1-1.974-.745l-.01-12.006a.767.767 0 0 0-1.533-.044V57.197a1.11 1.11 0 0 1-1.125 1.114h-.004a1.115 1.115 0 0 1-1.125-1.105l.002-5.464c0-.916.005-1.866.005-2.786 0-.016.008-.03.008-.046v-3.705a.768.768 0 0 0-.784-.75h-.044a.767.767 0 0 0-.783.751v12.013a1.128 1.128 0 0 1-2.256 0V46.76a.728.728 0 0 0-1.1-.662.726.726 0 0 0-.35.663v10.46a1.128 1.128 0 0 1-2.255 0v-6.167a.86.86 0 0 0-.84-.797H74.7a.775.775 0 0 0-.767.773c-.004 1.55.317 9.511.655 17.931.371 9.197.752 18.673.831 22.54h10.714l1.433-23.368a1.07 1.07 0 0 1 .14-.466l5.015-8.994a1.737 1.737 0 0 0-2.275.284z"/></g><g><path fill="url(#8x5sd)" d="M51.593 58.438l-.009 12.006a1.127 1.127 0 0 1-1.974.743l-1.536-1.746a1.737 1.737 0 0 0-2.274-.286l5.015 8.99c.074.13.12.273.136.421l1.39 12.934h10.763c.086-3.383.482-10.515.835-16.825.336-5.982.652-11.63.649-13.16a.787.787 0 0 0-.768-.787h-.042a.802.802 0 0 0-.762.811v6.166a1.128 1.128 0 0 1-2.255 0v-10.46a.807.807 0 0 0-1.612 0v10.46a1.128 1.128 0 0 1-2.255 0V55.692c0-.423-.277-.764-.7-.764h-.045a.712.712 0 0 0-.705.763v3.706c0 .016-.03.024-.032.04 0 .919-.03 1.864-.03 2.779 0 2.787.002 5.232 0 5.47a1.105 1.105 0 0 1-1.127 1.098h-.004a1.105 1.105 0 0 1-1.123-1.107V62.23v-3.83a.767.767 0 0 0-1.534.04z"/></g><g><path fill="url(#8x5se)" d="M61.443 47.173l.476 7.747a3.02 3.02 0 0 1 1.097 2.325v1.37c.245-.089.502-.137.762-.143h.042a3.037 3.037 0 0 1 3.023 3.026c.004 1.597-.3 7.03-.652 13.307-.352 6.281-.745 13.312-.83 16.695h7.802c-.08-3.867-.475-13.69-.828-22.45-.355-8.81-.661-16.407-.657-18.005a3.028 3.028 0 0 1 2.739-3l.003-.075c.338-8.405.657-16.344.654-17.893a.77.77 0 0 0-.768-.766h-.042a.777.777 0 0 0-.776.77v6.166a1.128 1.128 0 0 1-2.255 0v-10.46a.807.807 0 0 0-1.611 0v10.46a1.128 1.128 0 0 1-2.256 0V24.233c0-.423-.263-.721-.686-.721h-.045a.692.692 0 0 0-.719.72v3.706c0 .016-.024.03-.024.045 0 .92-.023 1.87-.022 2.785v5.48a1.125 1.125 0 0 1-1.128 1.12h-.005a1.124 1.124 0 0 1-1.124-1.128c.002-.237 0-2.686 0-5.47v-3.83a.767.767 0 0 0-1.533.04l-.01 12.006a1.129 1.129 0 0 1-1.973.744l-1.535-1.745a1.736 1.736 0 0 0-2.275-.284l5.015 8.993c.082.148.13.311.14.48z"/></g><g><path fill="url(#8x5sf)" d="M36.632 68.132a1.07 1.07 0 0 1 .14-.466l5.016-8.994a1.736 1.736 0 0 0-2.274.285l-1.536 1.744a1.127 1.127 0 0 1-1.974-.743l-.01-12.006a.767.767 0 0 0-1.533-.037l-.001 3.62v5.661a1.114 1.114 0 0 1-1.123 1.115h-.005a1.108 1.108 0 0 1-1.123-1.105c0-.245.005-2.75.006-5.671 0-.853.01-1.732.01-2.584 0-.014.02-.028.02-.041v-3.706a.788.788 0 0 0-.806-.748h-.045a.748.748 0 0 0-.761.75v12.013a1.128 1.128 0 0 1-2.256 0V46.76a.807.807 0 0 0-1.61 0V57.22a1.128 1.128 0 0 1-2.256 0v-6.167c0-.423-.278-.797-.702-.797h-.042a.775.775 0 0 0-.767.773c-.004 1.55.316 9.511.656 17.931.37 9.197.752 18.673.83 22.54h10.713z"/></g></g></g></svg>