<svg xmlns="http://www.w3.org/2000/svg" width="112" height="112" viewBox="0 0 112 112"><defs><linearGradient id="o5sma" x1="56" x2="56" y1="0" y2="112" gradientUnits="userSpaceOnUse"><stop offset="0" stop-color="#fff"/><stop offset="1" stop-color="#ffe6c4"/></linearGradient><linearGradient id="o5smb" x1="-1008" x2="-1008" y1="-280" y2="-280" gradientUnits="userSpaceOnUse"><stop offset="0" stop-color="#ffb871"/><stop offset="1" stop-color="#ff7334"/></linearGradient></defs><g><g><path fill="url(#o5sma)" d="M20 112c-11.046 0-20-8.954-20-20V20C0 8.954 8.954 0 20 0h72c11.046 0 20 8.954 20 20v72c0 11.046-8.954 20-20 20z"/></g><g><g><path fill="url(#o5smb)" d="M56.683 36.773h12.743v3.823H56.683zm0 39.507h12.743v3.823H56.683zm0-33.135h12.743v30.586H56.683zm0 39.507h12.743v5.097H56.683zm0-54.8h12.743v6.372H56.683zM91.92 86.238l-8.739 1.794-1.025-4.991 8.74-1.795zm-4.569-15.05c-.442-2.154-2.164-3.62-3.841-3.276-1.68.346-2.686 2.373-2.24 4.526.44 2.153 2.161 3.621 3.84 3.275 1.68-.344 2.685-2.37 2.241-4.525zm3.032 7.565l-8.737 1.794-8.71-42.447 8.738-1.793zm-9.22-44.944L72.427 35.6l-1.282-6.242 8.739-1.793zm-44.871 14.05c1.845.691 4.8 1.446 8.92 1.448 3.718 0 6.13-.623 7.647-1.285v30.82c-1.517-.664-3.93-1.286-7.647-1.286-4.12 0-7.075.755-8.92 1.445zm0-7.262H52.86v4.526c-.702.506-2.81 1.634-7.647 1.635-4.614 0-7.562-1.035-8.92-1.657zm0 41.164c1.358-.623 4.306-1.657 8.92-1.656 4.868 0 6.97 1.141 7.647 1.625v6.02H36.293V81.76zM21 82.652h12.744v5.097H21zm2.336-10.568a3.982 3.982 0 1 0 7.965 0 3.982 3.982 0 1 0-7.965 0zM21 36.774h12.744v43.329H21zm0-8.921h12.744v6.371H21z"/></g></g></g></svg>