<?xml version="1.0" encoding="utf-8"?><svg xmlns="http://www.w3.org/2000/svg" xmlns:xlink="http://www.w3.org/1999/xlink"><symbol viewBox="0 0 28 17" id="Icon_awesome-vk" xmlns="http://www.w3.org/2000/svg"><path d="M26.812 1.544c.188-.637 0-1.107-.908-1.107H22.9c-.765 0-1.117.403-1.305.852 0 0-1.53 3.728-3.692 6.145-.7.699-1.02.923-1.403.923-.189 0-.48-.224-.48-.862V1.544c0-.765-.213-1.107-.846-1.107h-4.723c-.479 0-.764.357-.764.689 0 .724 1.08.892 1.193 2.932v4.427c0 .969-.173 1.147-.556 1.147-1.02 0-3.498-3.743-4.967-8.027C5.06.774 4.77.437 4 .437H.996c-.856 0-1.03.403-1.03.852 0 .796 1.02 4.748 4.748 9.97 2.484 3.565 5.982 5.498 9.165 5.498 1.912 0 2.147-.429 2.147-1.168 0-3.407-.174-3.728.785-3.728.444 0 1.209.224 2.993 1.943 2.04 2.04 2.377 2.953 3.52 2.953h3.003c.857 0 1.29-.429 1.04-1.275-.57-1.78-4.431-5.442-4.605-5.687-.443-.57-.316-.826 0-1.336.006-.005 3.672-5.166 4.05-6.915z"/></symbol><symbol viewBox="0 0 13 12" id="archive" xmlns="http://www.w3.org/2000/svg"><path d="M.684.518a.784.784 0 00-.784.784V2.48c0 .216.177.392.392.392H12.06a.393.393 0 00.392-.392V1.302a.784.784 0 00-.785-.784zm3.923 5c0-.161.132-.293.294-.293h2.55c.16 0 .293.132.293.294v.196a.295.295 0 01-.294.294H4.9a.295.295 0 01-.293-.294zM.684 10.717c0 .433.351.784.785.784h9.413c.434 0 .784-.35.784-.784v-7.06H.684z"/></symbol><symbol viewBox="0 0 14 24" id="arrow-forward" xmlns="http://www.w3.org/2000/svg"><path d="M9.583 11.91L.646 2.98a1.68 1.68 0 010-2.384 1.702 1.702 0 012.39 0l10.126 10.118c.64.64.653 1.666.048 2.328L3.043 23.23c-.33.33-.766.492-1.195.492-.429 0-.865-.162-1.195-.492a1.68 1.68 0 010-2.384z"/></symbol><symbol viewBox="0 0 22 24" id="basket" xmlns="http://www.w3.org/2000/svg"><g clip-path="url(#dclip0)"><path d="M10.363 18.443a2.046 2.046 0 00-2.045 2.042 2.046 2.046 0 004.09 0 2.046 2.046 0 00-2.045-2.042zm6.134 0a2.046 2.046 0 00-2.045 2.042 2.046 2.046 0 004.089 0 2.046 2.046 0 00-2.044-2.042zm3.978-8.199L7.413 6.891a.614.614 0 00-.75.73L8.67 16.4h-.786L5.482 5.895a.613.613 0 00-.474-.464l-4.27-.882A.614.614 0 00.489 5.75l3.885.802L6.797 17.15a.613.613 0 00.598.477h12.07a.615.615 0 00.607-.53l.858-6.175a.613.613 0 00-.455-.678zm-8.14 3.91a.613.613 0 01-1.227 0v-2.696a.613.613 0 011.227 0v2.696zm2.625 0a.613.613 0 01-1.227 0v-1.88a.613.613 0 011.227 0v1.88zm2.625 0a.613.613 0 01-1.227 0v-1.226a.613.613 0 011.227 0v1.226z"/></g><path fill-rule="evenodd" clip-rule="evenodd" d="M16.268 4.568a2.996 2.996 0 00-1.693-.523c-.627 0-1.21.193-1.693.523-.28-.843-.492-1.752-.492-2.383C12.39.98 13.37 0 14.575 0s2.185.98 2.185 2.185c0 .631-.212 1.54-.492 2.383zm-4.722 2.274l.024.006v-.011l-.024.005zm4.972 1.217c-1.333-.33-2.766-.681-4.129-1.013a2.185 2.185 0 114.129 1.013zm4.436 1.103c-.866-.217-2.155-.538-3.618-.9a2.995 2.995 0 00.243-1.425c.87.18 1.762.45 2.308.765.596.344.969.928 1.067 1.56zM9.869 6.439c-.36-.086-.706-.167-1.03-.243a2.19 2.19 0 01-.376-2.667 2.188 2.188 0 013.147-.7c.098.738.338 1.599.61 2.353a3.01 3.01 0 00-.449.774c-.628.113-1.305.278-1.902.483zm10.124.075a3.43 3.43 0 01-.217.114c-.696-.295-1.587-.526-2.397-.672a3.01 3.01 0 00-.449-.774c.262-.727.494-1.553.599-2.273.095-.067.189-.128.278-.18a2.188 2.188 0 012.986.8 2.188 2.188 0 01-.8 2.985z"/><defs><clipPath id="dclip0"><path transform="translate(0 3.064)" d="M0 0h20.936v20.936H0z"/></clipPath></defs></symbol><symbol viewBox="0 0 344.96 344.96" id="check" xmlns="http://www.w3.org/2000/svg"><g data-name="Слой 2"><path d="M321.85 86.24l-40-23.11-23.1-40H212.5L172.48 0l-40 23.11H86.24l-23.11 40-40 23.1v46.21L0 172.48l23.11 40v46.21l40 23.11 23.11 40h46.21l40 23.1 40-23.11h46.21l23.11-40 40-23.11V212.5l23.11-40-23.11-40V86.24zM156.91 243.07a16.79 16.79 0 01-23.34 0l-50.45-50.44a16.19 16.19 0 010-22.89l13.35-13.35a16.19 16.19 0 0122.89 0l25.87 25.87 80.34-80.35a16.19 16.19 0 0122.89 0l13.35 13.35a16.19 16.19 0 010 22.89z" data-name="Capa 1"/></g></symbol><symbol viewBox="0 0 14 9" id="chevron-down" xmlns="http://www.w3.org/2000/svg"><path d="M6.975 5.844L11.98.638a.917.917 0 011.336 0 1.02 1.02 0 010 1.392l-5.67 5.9a.919.919 0 01-1.305.028L.63 2.035a1.003 1.003 0 01-.276-.697c0-.25.09-.504.275-.696a.917.917 0 011.336 0z"/></symbol><symbol viewBox="0 0 14 27" id="facebook" xmlns="http://www.w3.org/2000/svg"><path d="M13.125 14.93l.714-4.652H9.375v-3.02c0-1.272.624-2.513 2.623-2.513h2.029V.785S12.185.47 10.425.47c-3.676 0-6.08 2.229-6.08 6.262v3.546H.26v4.651h4.086v11.246h5.029V14.93z"/></symbol><symbol viewBox="0 0 14 27" id="fb" xmlns="http://www.w3.org/2000/svg"><path d="M13.125 14.93l.714-4.652H9.375v-3.02c0-1.272.624-2.513 2.623-2.513h2.029V.785S12.185.47 10.425.47c-3.676 0-6.08 2.229-6.08 6.262v3.546H.26v4.651h4.086v11.246h5.029V14.93z"/></symbol><symbol viewBox="0 0 25 25" id="instagram" xmlns="http://www.w3.org/2000/svg"><path d="M24.714 7.71c.114 2.01.114 8.026 0 10.035-.097 1.95-.543 3.676-1.965 5.1-1.423 1.427-3.15 1.873-5.1 1.965-2.009.114-8.03.114-10.04 0-1.95-.098-3.67-.543-5.099-1.966-1.428-1.423-1.873-3.15-1.966-5.099-.114-2.01-.114-8.031 0-10.04.098-1.95.538-3.677 1.966-5.1C3.938 1.183 5.665.737 7.61.645c2.01-.114 8.031-.114 10.04 0 1.95.098 3.677.543 5.1 1.966 1.428 1.423 1.873 3.15 1.965 5.099zm-2.106 5.017c0-1.77.146-5.57-.49-7.173a4.106 4.106 0 00-2.313-2.313c-1.596-.63-5.403-.489-7.173-.489-1.77 0-5.571-.147-7.173.489a4.106 4.106 0 00-2.313 2.313c-.63 1.597-.49 5.403-.49 7.173 0 1.77-.146 5.572.49 7.174a4.106 4.106 0 002.313 2.313c1.596.63 5.403.489 7.173.489 1.77 0 5.571.147 7.173-.489a4.106 4.106 0 002.314-2.313c.635-1.597.489-5.403.489-7.173zm-2.026-6.494c0 .809-.652 1.455-1.455 1.455a1.455 1.455 0 111.456-1.455zm-1.71 6.494a6.23 6.23 0 01-6.24 6.24 6.23 6.23 0 01-6.24-6.24 6.23 6.23 0 016.24-6.239 6.23 6.23 0 016.24 6.24zm-2.183 0a4.06 4.06 0 00-4.057-4.056 4.06 4.06 0 00-4.056 4.056 4.063 4.063 0 004.056 4.057 4.064 4.064 0 004.057-4.056z"/></symbol><symbol viewBox="0 0 9 14" id="next" xmlns="http://www.w3.org/2000/svg"><path d="M6.034 7.159L.828 2.154a.917.917 0 010-1.336 1.02 1.02 0 011.393 0l5.898 5.67a.92.92 0 01.029 1.305l-5.923 5.71a1.003 1.003 0 01-.696.276c-.25 0-.504-.09-.697-.276a.917.917 0 010-1.336z"/></symbol><symbol viewBox="0 0 9 14" id="prev" xmlns="http://www.w3.org/2000/svg"><path d="M2.91 7.164l5.207 5.004c.385.37.385.97 0 1.336a1.02 1.02 0 01-1.393 0L.826 7.834a.919.919 0 01-.029-1.305L6.72.82c.193-.185.447-.276.696-.276.25 0 .504.09.697.276.385.37.385.97 0 1.336z"/></symbol><symbol viewBox="0 0 29 21" id="radio" xmlns="http://www.w3.org/2000/svg"><path d="M16.997 10.837a2.5 2.5 0 11-5 0 2.5 2.5 0 015 0zm2.8-5.3a7.501 7.501 0 010 10.613m-10.6-.013a7.5 7.5 0 010-10.612M23.335 2c4.88 4.881 4.88 12.793 0 17.675m-17.675 0C.78 14.793.78 6.88 5.66 2"/></symbol><symbol viewBox="0 0 20 20" id="search" xmlns="http://www.w3.org/2000/svg"><path d="M19.505 17.603l-1.602 1.602-5.377-5.366v-.85l-.29-.3a6.958 6.958 0 01-4.549 1.688 6.99 6.99 0 116.99-6.99 6.96 6.96 0 01-1.688 4.55l.3.29h.85zm-6.98-10.216A4.832 4.832 0 007.688 2.55a4.832 4.832 0 00-4.839 4.838 4.832 4.832 0 004.84 4.84 4.832 4.832 0 004.838-4.84z"/></symbol><symbol viewBox="0 0 26 22" id="telegram" xmlns="http://www.w3.org/2000/svg"><path d="M25.335 2.499l-3.75 17.686c-.283 1.248-1.021 1.559-2.07.97l-5.714-4.21-2.757 2.652c-.305.305-.56.56-1.149.56l.411-5.82 10.59-9.57c.46-.41-.1-.637-.715-.227L7.088 12.784 1.452 11.02c-1.226-.383-1.249-1.226.255-1.814L23.754.712c1.02-.383 1.913.228 1.58 1.787z"/></symbol><symbol viewBox="0 0 23 26" id="tiktok" xmlns="http://www.w3.org/2000/svg"><path d="M12.094.746c1.382-.02 2.753-.01 4.124-.02.084 1.613.664 3.258 1.845 4.397 1.181 1.17 2.848 1.708 4.472 1.888v4.25c-1.519-.054-3.048-.37-4.43-1.023-.6-.275-1.16-.623-1.708-.981-.01 3.079.01 6.158-.021 9.227-.084 1.477-.57 2.942-1.424 4.155-1.381 2.025-3.775 3.343-6.232 3.385-1.508.084-3.016-.327-4.303-1.086-2.13-1.255-3.628-3.554-3.85-6.022a19.706 19.706 0 01-.01-1.57 7.917 7.917 0 012.721-5.231c1.75-1.519 4.197-2.247 6.486-1.814.02 1.56-.042 3.121-.042 4.682-1.044-.338-2.268-.243-3.185.39a3.661 3.661 0 00-1.434 1.846c-.222.537-.159 1.128-.148 1.697.253 1.73 1.92 3.185 3.69 3.027 1.182-.01 2.31-.696 2.922-1.698.2-.348.422-.706.432-1.118.106-1.887.064-3.764.074-5.652.011-4.25-.01-8.49.021-12.729z"/></symbol><symbol viewBox="0 0 27 22" id="twitter" xmlns="http://www.w3.org/2000/svg"><path d="M23.698 5.505c.017.236.017.473.017.71 0 7.22-5.495 15.54-15.54 15.54-3.095 0-5.97-.896-8.388-2.452.44.051.863.068 1.32.068 2.553 0 4.903-.863 6.78-2.334A5.472 5.472 0 012.78 13.25c.339.05.677.085 1.032.085.49 0 .98-.068 1.437-.186a5.463 5.463 0 01-4.38-5.36V7.72c.728.406 1.573.66 2.47.693A5.46 5.46 0 01.903 3.864c0-1.014.27-1.945.744-2.756A15.525 15.525 0 0012.91 6.824a6.157 6.157 0 01-.136-1.252A5.46 5.46 0 0118.236.11c1.573 0 2.993.66 3.99 1.725A10.755 10.755 0 0025.695.516a5.45 5.45 0 01-2.401 3.01 10.944 10.944 0 003.145-.846 11.745 11.745 0 01-2.74 2.825z"/></symbol><symbol viewBox="0 0 21 21" id="user" xmlns="http://www.w3.org/2000/svg"><path d="M4.566 5.871A5.873 5.873 0 0110.437 0a5.873 5.873 0 015.873 5.87 5.873 5.873 0 01-11.742 0zm16.309 12.394v.653c0 1.08-.876 1.957-1.957 1.957H1.958A1.958 1.958 0 010 18.918v-.653a5.218 5.218 0 015.219-5.218h2.246a7.1 7.1 0 005.944 0h2.247a5.218 5.218 0 015.219 5.218z"/></symbol><symbol viewBox="0 0 16 16" id="viber" xmlns="http://www.w3.org/2000/svg"><path d="M8 1.335c-1.071.013-3.374.19-4.662 1.37-.958.948-1.292 2.35-1.331 4.084-.033 1.728-.072 4.973 3.058 5.856v1.346s-.02.538.337.648c.438.14.688-.275 1.105-.72l.778-.879c2.142.178 3.782-.232 3.97-.293.435-.139 2.883-.451 3.283-3.696.41-3.351-.2-5.463-1.301-6.418h-.007c-.332-.306-1.668-1.279-4.652-1.29 0 0-.222-.014-.578-.008zm.037.942a7.02 7.02 0 01.488.011c2.527.007 3.732.767 4.017 1.023.927.794 1.405 2.697 1.055 5.495-.332 2.713-2.317 2.885-2.685 3.002-.156.05-1.6.406-3.42.289 0 0-1.356 1.634-1.78 2.055-.067.074-.146.095-.196.085-.071-.018-.093-.107-.089-.229l.013-2.233c-2.655-.733-2.498-3.5-2.47-4.946.033-1.446.304-2.628 1.113-3.43 1.088-.982 3.043-1.115 3.953-1.122zm.2 1.446a.166.166 0 100 .332 3.136 3.136 0 012.242.883c.606.588.9 1.378.912 2.411 0 .092.074.167.167.167V7.51a.167.167 0 00.168-.165 3.588 3.588 0 00-1.009-2.646c-.66-.645-1.496-.977-2.48-.977zm-2.198.382a.523.523 0 00-.342.067H5.69a2.61 2.61 0 00-.637.523 1.003 1.003 0 00-.256.525.71.71 0 00.026.302l.01.006c.172.504.396.988.67 1.444a8.48 8.48 0 001.29 1.762l.015.022.024.017.015.018.017.015c.532.505 1.127.94 1.769 1.295.734.4 1.18.588 1.447.667v.004c.078.024.15.034.221.034.228-.016.444-.109.613-.262a2.53 2.53 0 00.517-.638v-.004c.128-.241.085-.469-.1-.623-.37-.323-.77-.61-1.195-.857-.285-.155-.574-.061-.69.095l-.25.315c-.129.156-.361.134-.361.134l-.007.004C7.093 8.527 6.63 6.772 6.63 6.772s-.022-.239.139-.36l.312-.252c.15-.122.254-.41.094-.695a7.498 7.498 0 00-.856-1.194.475.475 0 00-.28-.167zm2.486.495c-.221 0-.221.334.003.334A2.098 2.098 0 0110 5.572 1.94 1.94 0 0110.5 7a.168.168 0 00.167.165l.007.009a.169.169 0 00.167-.167c.015-.662-.191-1.218-.595-1.663C9.84 4.9 9.273 4.65 8.549 4.6h-.024zm.274.898c-.228-.006-.236.335-.01.341.55.029.816.306.851.877a.166.166 0 00.165.163h.007a.168.168 0 00.16-.178c-.039-.744-.445-1.164-1.166-1.202H8.8z"/></symbol><symbol viewBox="0 0 24 24" id="vk" xmlns="http://www.w3.org/2000/svg"><path d="M21.579 6.855c.14-.465 0-.806-.662-.806h-2.193c-.558 0-.813.295-.953.619 0 0-1.115 2.719-2.695 4.482-.51.513-.743.675-1.021.675-.139 0-.341-.162-.341-.627V6.855c0-.558-.161-.806-.626-.806H9.642c-.348 0-.558.258-.558.504 0 .528.79.65.871 2.138v3.228c0 .707-.127.836-.407.836-.743 0-2.551-2.73-3.624-5.853-.209-.607-.42-.852-.98-.852H2.752c-.627 0-.752.295-.752.619 0 .582.743 3.462 3.461 7.27 1.812 2.602 4.363 4.012 6.687 4.012 1.393 0 1.565-.313 1.565-.853v-1.966c0-.626.133-.752.574-.752.324 0 .882.164 2.183 1.417 1.486 1.486 1.732 2.153 2.567 2.153h2.192c.626 0 .939-.313.759-.931-.197-.615-.907-1.51-1.849-2.57-.512-.603-1.277-1.253-1.51-1.578-.325-.42-.231-.604 0-.976.001 0 2.672-3.761 2.95-5.04z"/></symbol><symbol viewBox="0 0 16 16" id="whatsapp" xmlns="http://www.w3.org/2000/svg"><path fill-rule="evenodd" clip-rule="evenodd" d="M12.269 3.755A5.947 5.947 0 008.035 2 5.994 5.994 0 002.05 7.985a5.98 5.98 0 00.799 2.992L2 14.077l3.173-.832c.877.477 1.86.728 2.86.728h.002a5.993 5.993 0 005.533-8.276 5.953 5.953 0 00-1.3-1.942zm-4.234 9.208h-.002c-.89 0-1.765-.24-2.532-.694l-.181-.108-1.883.494.502-1.835-.118-.188a4.965 4.965 0 01-.76-2.647 4.982 4.982 0 016.88-4.597c.604.25 1.152.618 1.613 1.081a4.946 4.946 0 011.455 3.52 4.982 4.982 0 01-4.974 4.974zm2.729-3.726c-.15-.075-.885-.436-1.022-.486-.137-.05-.236-.075-.336.074-.1.15-.387.486-.474.586-.087.1-.175.112-.324.038-.15-.075-.631-.233-1.203-.742a4.505 4.505 0 01-.832-1.036c-.087-.15-.009-.231.066-.306.068-.066.15-.174.224-.262.075-.087.1-.149.15-.249.05-.1.025-.187-.013-.262-.037-.075-.337-.811-.461-1.11-.121-.29-.244-.252-.336-.256a6.418 6.418 0 00-.286-.005.55.55 0 00-.4.186c-.137.15-.523.512-.523 1.248s.536 1.447.61 1.547c.075.1 1.055 1.61 2.555 2.258.358.154.636.246.853.315.358.114.684.098.942.06.287-.043.885-.362 1.01-.711.124-.35.124-.649.087-.711-.038-.063-.138-.101-.287-.176z"/></symbol></svg>