<svg xmlns="http://www.w3.org/2000/svg" width="56" height="56" viewBox="0 0 56 56"><defs><linearGradient id="nswta" x1="-243" x2="-243" y1="-536" y2="-536" gradientUnits="userSpaceOnUse"><stop offset="0" stop-color="#fff"/><stop offset="1" stop-color="#c0e8c8"/></linearGradient><linearGradient id="nswtb" x1="22.25" x2="22.25" y1="12.27" y2="27.38" gradientUnits="userSpaceOnUse"><stop offset="0" stop-color="#78d062"/><stop offset="1" stop-color="#36b754"/></linearGradient><linearGradient id="nswtc" x1="31.72" x2="31.72" y1="19.49" y2="47.17" gradientUnits="userSpaceOnUse"><stop offset="0" stop-color="#78d062"/><stop offset="1" stop-color="#36b754"/></linearGradient></defs><g><g><path fill="url(#nswta)" d="M15 56C6.716 56 0 49.284 0 41V15C0 6.716 6.716 0 15 0h26c8.284 0 15 6.716 15 15v26c0 8.284-6.716 15-15 15z"/></g><g><g><path fill="url(#nswtb)" d="M13.206 19.905c1.27 2.952 3.413 5.873 6.412 7.132.342.142.73.25 1.13.339.799-1.192 1.715-2.158 2.789-2.95a14.012 14.012 0 0 1 2.885-1.626 8.14 8.14 0 0 0-.899-.545c-1.248-.653-2.6-1.227-3.915-1.844 1.237.335 2.656.46 3.84.891a8.93 8.93 0 0 1 2.054 1.092c1.894-.646 3.873-.956 5.849-1.191-1.601-2.66-5.018-4.797-7.593-5.763-2.688-1.01-5.734-1.134-8.726-1.444-1.833-.19-3.826-.874-5.285-1.673-.331-.182-.684.121-.57.489.716 2.293 1.08 4.889 2.029 7.093z"/></g><g><path fill="url(#nswtc)" d="M44.82 19.555c-3.374 1.833-7.243 2.058-11.034 2.493-1.85.214-3.684.478-5.428 1.005a16.1 16.1 0 0 0-1.127.386 13.28 13.28 0 0 0-3.166 1.711 10.736 10.736 0 0 0-2.361 2.415c-1.034 1.44-1.755 3.098-2.347 4.82a27.497 27.497 0 0 0-1.48 9.758c.04 1.34.061 2.735.393 4.044.075.289.146.656.37.87.293.282.817-.007.7-.417-.85-2.892-.321-6.273.852-9.037 1.348-3.177 3.951-5.067 7.132-6.22a40.457 40.457 0 0 1 2.585-.826c.018-.008.036-.008.054-.008.175 0 .25.257.068.34-1.034.466-2.061.937-3.039 1.447-4.785 2.496-6.875 8.31-5.081 8.31.146 0 .317-.04.513-.122 2.767-1.145 6.055-1.156 9.097-1.719 1.07-.196 2.111-.464 3.089-.87 3.88-1.62 6.654-4.786 8.305-8.594 1.23-2.843 1.708-6.198 2.639-9.151.121-.378-.146-.703-.474-.703a.49.49 0 0 0-.26.068z"/></g></g></g></svg>