<svg xmlns="http://www.w3.org/2000/svg" width="56" height="56" viewBox="0 0 56 56"><defs><linearGradient id="m71aa" x1="-570" x2="-570" y1="-468" y2="-468" gradientUnits="userSpaceOnUse"><stop offset="0" stop-color="#fff"/><stop offset="1" stop-color="#8ecbff"/></linearGradient><linearGradient id="m71ab" x1="27.85" x2="27.85" y1="23.66" y2="29.64" gradientUnits="userSpaceOnUse"><stop offset="0" stop-color="#90c3ff"/><stop offset="1" stop-color="#007fce"/></linearGradient><linearGradient id="m71ac" x1="36.73" x2="36.73" y1="11.08" y2="14.04" gradientUnits="userSpaceOnUse"><stop offset="0" stop-color="#90c3ff"/><stop offset="1" stop-color="#007fce"/></linearGradient><linearGradient id="m71ad" x1="37.56" x2="37.56" y1="14.67" y2="24.36" gradientUnits="userSpaceOnUse"><stop offset="0" stop-color="#90c3ff"/><stop offset="1" stop-color="#007fce"/></linearGradient><linearGradient id="m71ae" x1="27.85" x2="27.85" y1="30.84" y2="38.03" gradientUnits="userSpaceOnUse"><stop offset="0" stop-color="#90c3ff"/><stop offset="1" stop-color="#007fce"/></linearGradient><linearGradient id="m71af" x1="38.63" x2="38.63" y1="32.64" y2="44.61" gradientUnits="userSpaceOnUse"><stop offset="0" stop-color="#90c3ff"/><stop offset="1" stop-color="#007fce"/></linearGradient><linearGradient id="m71ag" x1="38.5" x2="38.5" y1="35" y2="42" gradientUnits="userSpaceOnUse"><stop offset="0" stop-color="#90c3ff"/><stop offset="1" stop-color="#007fce"/></linearGradient><linearGradient id="m71ah" x1="38.28" x2="38.28" y1="23.65" y2="34.66" gradientUnits="userSpaceOnUse"><stop offset="0" stop-color="#90c3ff"/><stop offset="1" stop-color="#007fce"/></linearGradient><linearGradient id="m71ai" x1="28" x2="28" y1="33" y2="35" gradientUnits="userSpaceOnUse"><stop offset="0" stop-color="#90c3ff"/><stop offset="1" stop-color="#007fce"/></linearGradient><linearGradient id="m71aj" x1="18.97" x2="18.97" y1="11.08" y2="14.04" gradientUnits="userSpaceOnUse"><stop offset="0" stop-color="#90c3ff"/><stop offset="1" stop-color="#007fce"/></linearGradient><linearGradient id="m71ak" x1="17.5" x2="17.5" y1="35" y2="42" gradientUnits="userSpaceOnUse"><stop offset="0" stop-color="#90c3ff"/><stop offset="1" stop-color="#007fce"/></linearGradient><linearGradient id="m71al" x1="17.42" x2="17.42" y1="23.65" y2="34.66" gradientUnits="userSpaceOnUse"><stop offset="0" stop-color="#90c3ff"/><stop offset="1" stop-color="#007fce"/></linearGradient><linearGradient id="m71am" x1="18.13" x2="18.13" y1="14.67" y2="24.18" gradientUnits="userSpaceOnUse"><stop offset="0" stop-color="#90c3ff"/><stop offset="1" stop-color="#007fce"/></linearGradient><linearGradient id="m71an" x1="17.07" x2="17.07" y1="32.64" y2="44.61" gradientUnits="userSpaceOnUse"><stop offset="0" stop-color="#90c3ff"/><stop offset="1" stop-color="#007fce"/></linearGradient></defs><g><g><path fill="url(#m71aa)" d="M15 56C6.716 56 0 49.284 0 41V15C0 6.716 6.716 0 15 0h26c8.284 0 15 6.716 15 15v26c0 8.284-6.716 15-15 15z"/></g><g><g><path fill="url(#m71ab)" d="M24.258 23.66h7.186v5.988h-7.186z"/></g><g><path fill="url(#m71ac)" d="M37.484 13.48c.523 0 1.043.076 1.544.227l-.131-1.05a1.8 1.8 0 0 0-1.782-1.573h-.88a1.799 1.799 0 0 0-1.797 1.796v1.163a5.355 5.355 0 0 1 2.396-.564z"/></g><g><path fill="url(#m71ad)" d="M42.47 23.936l-.839-5.675a4.215 4.215 0 0 0-4.148-3.584h-.65a4.197 4.197 0 0 0-4.191 4.192v5.493c1.755-1.232 3.501-1.87 5.202-1.9 1.577-.028 3.129.468 4.625 1.474z"/></g><g><path fill="url(#m71ae)" d="M27.851 32.043a2.395 2.395 0 1 1 0 4.79 2.395 2.395 0 0 1 0-4.79zm-3.593 5.988h7.186v-7.186h-7.186z"/></g><g><path fill="url(#m71af)" d="M38.63 43.421a4.79 4.79 0 1 1 0-9.581 4.79 4.79 0 0 1 0 9.581zm0-10.779a5.988 5.988 0 1 0 5.989 5.988 5.995 5.995 0 0 0-5.989-5.988z"/></g><g><path fill="url(#m71ag)" d="M35 38.5a3.5 3.5 0 1 1 7 0 3.5 3.5 0 0 1-7 0z"/></g><g><path fill="url(#m71ah)" d="M38.63 31.444c2.013 0 3.933.845 5.292 2.33l-1.203-8.15c-3.197-2.697-6.498-2.62-10.077.234v8.805a7.185 7.185 0 0 1 5.988-3.219z"/></g><g><path fill="url(#m71ai)" d="M27 34a1 1 0 1 1 2 0 1 1 0 0 1-2 0z"/></g><g><path fill="url(#m71aj)" d="M18.869 13.48c.83 0 1.65.192 2.395.561v-1.16a1.799 1.799 0 0 0-1.796-1.797h-.88a1.8 1.8 0 0 0-1.782 1.573l-.131 1.049a5.408 5.408 0 0 1 1.544-.227z"/></g><g><path fill="url(#m71ak)" d="M14 38.5a3.5 3.5 0 1 1 7 0 3.5 3.5 0 0 1-7 0z"/></g><g><path fill="url(#m71al)" d="M12.959 25.796l-1.178 7.978a7.178 7.178 0 0 1 11.28.889v-8.948c-3.205-2.77-6.514-2.743-10.102.08z"/></g><g><path fill="url(#m71am)" d="M21.489 15.596a4.145 4.145 0 0 0-2.62-.919h-.65a4.19 4.19 0 0 0-4.148 3.585l-.868 5.88c1.688-1.116 3.366-1.68 5.003-1.68h.033c1.649.008 3.266.587 4.822 1.723V18.87a4.176 4.176 0 0 0-1.572-3.273z"/></g><g><path fill="url(#m71an)" d="M17.072 43.421a4.79 4.79 0 1 1 0-9.581 4.79 4.79 0 0 1 0 9.581zm0-10.779a5.988 5.988 0 1 0 5.989 5.988 5.995 5.995 0 0 0-5.989-5.988z"/></g></g></g></svg>