<svg xmlns="http://www.w3.org/2000/svg" width="56" height="56" viewBox="0 0 56 56"><defs><linearGradient id="ugfga" x1="-1023" x2="-1023" y1="-891" y2="-891" gradientUnits="userSpaceOnUse"><stop offset="0" stop-color="#fff"/><stop offset="1" stop-color="#c0e8c8"/></linearGradient><linearGradient id="ugfgb" x1="11.32" x2="11.32" y1="19.31" y2="22.54" gradientUnits="userSpaceOnUse"><stop offset="0" stop-color="#78d062"/><stop offset="1" stop-color="#36b754"/></linearGradient><linearGradient id="ugfgc" x1="7.74" x2="7.74" y1="25.43" y2="27.43" gradientUnits="userSpaceOnUse"><stop offset="0" stop-color="#78d062"/><stop offset="1" stop-color="#36b754"/></linearGradient><linearGradient id="ugfgd" x1="8.57" x2="8.57" y1="25.14" y2="27.36" gradientUnits="userSpaceOnUse"><stop offset="0" stop-color="#78d062"/><stop offset="1" stop-color="#36b754"/></linearGradient><linearGradient id="ugfge" x1="8.97" x2="8.97" y1="24.89" y2="25.23" gradientUnits="userSpaceOnUse"><stop offset="0" stop-color="#78d062"/><stop offset="1" stop-color="#36b754"/></linearGradient><linearGradient id="ugfgf" x1="9.32" x2="9.32" y1="24.8" y2="25" gradientUnits="userSpaceOnUse"><stop offset="0" stop-color="#78d062"/><stop offset="1" stop-color="#36b754"/></linearGradient><linearGradient id="ugfgg" x1="9.93" x2="9.93" y1="25.02" y2="26.67" gradientUnits="userSpaceOnUse"><stop offset="0" stop-color="#78d062"/><stop offset="1" stop-color="#36b754"/></linearGradient><linearGradient id="ugfgh" x1="6.36" x2="6.36" y1="24.42" y2="28.1" gradientUnits="userSpaceOnUse"><stop offset="0" stop-color="#78d062"/><stop offset="1" stop-color="#36b754"/></linearGradient><linearGradient id="ugfgi" x1="5.86" x2="5.86" y1="22.61" y2="23.13" gradientUnits="userSpaceOnUse"><stop offset="0" stop-color="#78d062"/><stop offset="1" stop-color="#36b754"/></linearGradient><linearGradient id="ugfgj" x1="5.86" x2="5.86" y1="21.71" y2="22.41" gradientUnits="userSpaceOnUse"><stop offset="0" stop-color="#78d062"/><stop offset="1" stop-color="#36b754"/></linearGradient><linearGradient id="ugfgk" x1="6" x2="6" y1="23.89" y2="24.06" gradientUnits="userSpaceOnUse"><stop offset="0" stop-color="#78d062"/><stop offset="1" stop-color="#36b754"/></linearGradient><linearGradient id="ugfgl" x1="10.14" x2="10.14" y1="20.68" y2="23.97" gradientUnits="userSpaceOnUse"><stop offset="0" stop-color="#78d062"/><stop offset="1" stop-color="#36b754"/></linearGradient><linearGradient id="ugfgm" x1="7.15" x2="7.15" y1="23.92" y2="24.11" gradientUnits="userSpaceOnUse"><stop offset="0" stop-color="#78d062"/><stop offset="1" stop-color="#36b754"/></linearGradient><linearGradient id="ugfgn" x1="7.89" x2="7.89" y1="24.13" y2="24.4" gradientUnits="userSpaceOnUse"><stop offset="0" stop-color="#78d062"/><stop offset="1" stop-color="#36b754"/></linearGradient><linearGradient id="ugfgo" x1="12.8" x2="12.8" y1="21.59" y2="25.56" gradientUnits="userSpaceOnUse"><stop offset="0" stop-color="#78d062"/><stop offset="1" stop-color="#36b754"/></linearGradient><linearGradient id="ugfgp" x1="9.5" x2="9.5" y1="23.74" y2="23.83" gradientUnits="userSpaceOnUse"><stop offset="0" stop-color="#78d062"/><stop offset="1" stop-color="#36b754"/></linearGradient><linearGradient id="ugfgq" x1="7.62" x2="7.62" y1="26.95" y2="29.94" gradientUnits="userSpaceOnUse"><stop offset="0" stop-color="#78d062"/><stop offset="1" stop-color="#36b754"/></linearGradient><linearGradient id="ugfgr" x1="7.44" x2="7.44" y1="27.73" y2="34.32" gradientUnits="userSpaceOnUse"><stop offset="0" stop-color="#78d062"/><stop offset="1" stop-color="#36b754"/></linearGradient><linearGradient id="ugfgs" x1="6.34" x2="6.34" y1="37.06" y2="40.61" gradientUnits="userSpaceOnUse"><stop offset="0" stop-color="#78d062"/><stop offset="1" stop-color="#36b754"/></linearGradient><linearGradient id="ugfgt" x1="5.86" x2="5.86" y1="40.21" y2="41.37" gradientUnits="userSpaceOnUse"><stop offset="0" stop-color="#78d062"/><stop offset="1" stop-color="#36b754"/></linearGradient><linearGradient id="ugfgu" x1="7.27" x2="7.27" y1="38.35" y2="40.24" gradientUnits="userSpaceOnUse"><stop offset="0" stop-color="#78d062"/><stop offset="1" stop-color="#36b754"/></linearGradient><linearGradient id="ugfgv" x1="7.17" x2="7.17" y1="39.37" y2="40.08" gradientUnits="userSpaceOnUse"><stop offset="0" stop-color="#78d062"/><stop offset="1" stop-color="#36b754"/></linearGradient><linearGradient id="ugfgw" x1="8.48" x2="8.48" y1="38.61" y2="41.16" gradientUnits="userSpaceOnUse"><stop offset="0" stop-color="#78d062"/><stop offset="1" stop-color="#36b754"/></linearGradient><linearGradient id="ugfgx" x1="7.5" x2="7.5" y1="36.09" y2="39.13" gradientUnits="userSpaceOnUse"><stop offset="0" stop-color="#78d062"/><stop offset="1" stop-color="#36b754"/></linearGradient><linearGradient id="ugfgy" x1="7.13" x2="7.13" y1="39.26" y2="41.37" gradientUnits="userSpaceOnUse"><stop offset="0" stop-color="#78d062"/><stop offset="1" stop-color="#36b754"/></linearGradient><linearGradient id="ugfgz" x1="18.61" x2="18.61" y1="34.68" y2="41.37" gradientUnits="userSpaceOnUse"><stop offset="0" stop-color="#78d062"/><stop offset="1" stop-color="#36b754"/></linearGradient><linearGradient id="ugfgA" x1="33.23" x2="33.23" y1="37.89" y2="41.37" gradientUnits="userSpaceOnUse"><stop offset="0" stop-color="#78d062"/><stop offset="1" stop-color="#36b754"/></linearGradient><linearGradient id="ugfgB" x1="41.39" x2="41.39" y1="34.74" y2="41.37" gradientUnits="userSpaceOnUse"><stop offset="0" stop-color="#78d062"/><stop offset="1" stop-color="#36b754"/></linearGradient><linearGradient id="ugfgC" x1="26.7" x2="26.7" y1="40.27" y2="41.37" gradientUnits="userSpaceOnUse"><stop offset="0" stop-color="#78d062"/><stop offset="1" stop-color="#36b754"/></linearGradient><linearGradient id="ugfgD" x1="13.87" x2="13.87" y1="39.34" y2="41.37" gradientUnits="userSpaceOnUse"><stop offset="0" stop-color="#78d062"/><stop offset="1" stop-color="#36b754"/></linearGradient><linearGradient id="ugfgE" x1="11.28" x2="11.28" y1="40.22" y2="41.36" gradientUnits="userSpaceOnUse"><stop offset="0" stop-color="#78d062"/><stop offset="1" stop-color="#36b754"/></linearGradient><linearGradient id="ugfgF" x1="13.24" x2="13.24" y1="41.08" y2="41.36" gradientUnits="userSpaceOnUse"><stop offset="0" stop-color="#78d062"/><stop offset="1" stop-color="#36b754"/></linearGradient><linearGradient id="ugfgG" x1="44.55" x2="44.55" y1="39.07" y2="41.37" gradientUnits="userSpaceOnUse"><stop offset="0" stop-color="#78d062"/><stop offset="1" stop-color="#36b754"/></linearGradient><linearGradient id="ugfgH" x1="46.68" x2="46.68" y1="14.73" y2="15.55" gradientUnits="userSpaceOnUse"><stop offset="0" stop-color="#78d062"/><stop offset="1" stop-color="#36b754"/></linearGradient><linearGradient id="ugfgI" x1="48.43" x2="48.43" y1="16.04" y2="16.23" gradientUnits="userSpaceOnUse"><stop offset="0" stop-color="#78d062"/><stop offset="1" stop-color="#36b754"/></linearGradient><linearGradient id="ugfgJ" x1="50.54" x2="50.54" y1="15.67" y2="15.74" gradientUnits="userSpaceOnUse"><stop offset="0" stop-color="#78d062"/><stop offset="1" stop-color="#36b754"/></linearGradient><linearGradient id="ugfgK" x1="51.39" x2="51.39" y1="21.95" y2="22.2" gradientUnits="userSpaceOnUse"><stop offset="0" stop-color="#78d062"/><stop offset="1" stop-color="#36b754"/></linearGradient><linearGradient id="ugfgL" x1="51.82" x2="51.82" y1="21.87" y2="21.94" gradientUnits="userSpaceOnUse"><stop offset="0" stop-color="#78d062"/><stop offset="1" stop-color="#36b754"/></linearGradient><linearGradient id="ugfgM" x1="49.02" x2="49.02" y1="34.2" y2="37.11" gradientUnits="userSpaceOnUse"><stop offset="0" stop-color="#78d062"/><stop offset="1" stop-color="#36b754"/></linearGradient><linearGradient id="ugfgN" x1="49.55" x2="49.55" y1="36.7" y2="36.94" gradientUnits="userSpaceOnUse"><stop offset="0" stop-color="#78d062"/><stop offset="1" stop-color="#36b754"/></linearGradient><linearGradient id="ugfgO" x1="50.52" x2="50.52" y1="36.91" y2="41.36" gradientUnits="userSpaceOnUse"><stop offset="0" stop-color="#78d062"/><stop offset="1" stop-color="#36b754"/></linearGradient><linearGradient id="ugfgP" x1="36.31" x2="36.31" y1="19.98" y2="20.56" gradientUnits="userSpaceOnUse"><stop offset="0" stop-color="#78d062"/><stop offset="1" stop-color="#36b754"/></linearGradient><linearGradient id="ugfgQ" x1="35.26" x2="35.26" y1="20.47" y2="21.65" gradientUnits="userSpaceOnUse"><stop offset="0" stop-color="#78d062"/><stop offset="1" stop-color="#36b754"/></linearGradient><linearGradient id="ugfgR" x1="35.83" x2="35.83" y1="21.62" y2="21.88" gradientUnits="userSpaceOnUse"><stop offset="0" stop-color="#78d062"/><stop offset="1" stop-color="#36b754"/></linearGradient><linearGradient id="ugfgS" x1="36.3" x2="36.3" y1="21.59" y2="22.13" gradientUnits="userSpaceOnUse"><stop offset="0" stop-color="#78d062"/><stop offset="1" stop-color="#36b754"/></linearGradient><linearGradient id="ugfgT" x1="34.56" x2="34.56" y1="21.4" y2="21.62" gradientUnits="userSpaceOnUse"><stop offset="0" stop-color="#78d062"/><stop offset="1" stop-color="#36b754"/></linearGradient><linearGradient id="ugfgU" x1="31.45" x2="31.45" y1="23.95" y2="24.24" gradientUnits="userSpaceOnUse"><stop offset="0" stop-color="#78d062"/><stop offset="1" stop-color="#36b754"/></linearGradient><linearGradient id="ugfgV" x1="35.6" x2="35.6" y1="19.45" y2="19.56" gradientUnits="userSpaceOnUse"><stop offset="0" stop-color="#78d062"/><stop offset="1" stop-color="#36b754"/></linearGradient><linearGradient id="ugfgW" x1="35.17" x2="35.17" y1="22.22" y2="22.36" gradientUnits="userSpaceOnUse"><stop offset="0" stop-color="#78d062"/><stop offset="1" stop-color="#36b754"/></linearGradient><linearGradient id="ugfgX" x1="30.08" x2="30.08" y1="22.36" y2="22.43" gradientUnits="userSpaceOnUse"><stop offset="0" stop-color="#78d062"/><stop offset="1" stop-color="#36b754"/></linearGradient><linearGradient id="ugfgY" x1="29.84" x2="29.84" y1="21.79" y2="21.91" gradientUnits="userSpaceOnUse"><stop offset="0" stop-color="#78d062"/><stop offset="1" stop-color="#36b754"/></linearGradient><linearGradient id="ugfgZ" x1="29.21" x2="29.21" y1="21.13" y2="22.16" gradientUnits="userSpaceOnUse"><stop offset="0" stop-color="#78d062"/><stop offset="1" stop-color="#36b754"/></linearGradient><linearGradient id="ugfgaa" x1="28.34" x2="28.34" y1="20.68" y2="21.64" gradientUnits="userSpaceOnUse"><stop offset="0" stop-color="#78d062"/><stop offset="1" stop-color="#36b754"/></linearGradient><linearGradient id="ugfgab" x1="28.4" x2="28.4" y1="22.75" y2="22.9" gradientUnits="userSpaceOnUse"><stop offset="0" stop-color="#78d062"/><stop offset="1" stop-color="#36b754"/></linearGradient><linearGradient id="ugfgac" x1="27.41" x2="27.41" y1="22.72" y2="22.81" gradientUnits="userSpaceOnUse"><stop offset="0" stop-color="#78d062"/><stop offset="1" stop-color="#36b754"/></linearGradient><linearGradient id="ugfgad" x1="26.71" x2="26.71" y1="24.48" y2="24.6" gradientUnits="userSpaceOnUse"><stop offset="0" stop-color="#78d062"/><stop offset="1" stop-color="#36b754"/></linearGradient><linearGradient id="ugfgae" x1="26.16" x2="26.16" y1="23.9" y2="24.04" gradientUnits="userSpaceOnUse"><stop offset="0" stop-color="#78d062"/><stop offset="1" stop-color="#36b754"/></linearGradient><linearGradient id="ugfgaf" x1="26.23" x2="26.23" y1="24.74" y2="24.87" gradientUnits="userSpaceOnUse"><stop offset="0" stop-color="#78d062"/><stop offset="1" stop-color="#36b754"/></linearGradient><linearGradient id="ugfgag" x1="25.82" x2="25.82" y1="20.94" y2="21.06" gradientUnits="userSpaceOnUse"><stop offset="0" stop-color="#78d062"/><stop offset="1" stop-color="#36b754"/></linearGradient><linearGradient id="ugfgah" x1="25.43" x2="25.43" y1="25.39" y2="25.6" gradientUnits="userSpaceOnUse"><stop offset="0" stop-color="#78d062"/><stop offset="1" stop-color="#36b754"/></linearGradient><linearGradient id="ugfgai" x1="25.07" x2="25.07" y1="25.61" y2="25.81" gradientUnits="userSpaceOnUse"><stop offset="0" stop-color="#78d062"/><stop offset="1" stop-color="#36b754"/></linearGradient><linearGradient id="ugfgaj" x1="24.89" x2="24.89" y1="24.92" y2="25.03" gradientUnits="userSpaceOnUse"><stop offset="0" stop-color="#78d062"/><stop offset="1" stop-color="#36b754"/></linearGradient><linearGradient id="ugfgak" x1="24.57" x2="24.57" y1="25.17" y2="25.3" gradientUnits="userSpaceOnUse"><stop offset="0" stop-color="#78d062"/><stop offset="1" stop-color="#36b754"/></linearGradient><linearGradient id="ugfgal" x1="23.91" x2="23.91" y1="24.74" y2="25.01" gradientUnits="userSpaceOnUse"><stop offset="0" stop-color="#78d062"/><stop offset="1" stop-color="#36b754"/></linearGradient><linearGradient id="ugfgam" x1="21.05" x2="21.05" y1="25.77" y2="26.27" gradientUnits="userSpaceOnUse"><stop offset="0" stop-color="#78d062"/><stop offset="1" stop-color="#36b754"/></linearGradient><linearGradient id="ugfgan" x1="18.76" x2="18.76" y1="25.21" y2="25.64" gradientUnits="userSpaceOnUse"><stop offset="0" stop-color="#78d062"/><stop offset="1" stop-color="#36b754"/></linearGradient><linearGradient id="ugfgao" x1="14.67" x2="14.67" y1="25.3" y2="25.4" gradientUnits="userSpaceOnUse"><stop offset="0" stop-color="#78d062"/><stop offset="1" stop-color="#36b754"/></linearGradient><linearGradient id="ugfgap" x1="22.17" x2="22.17" y1="22.37" y2="25.53" gradientUnits="userSpaceOnUse"><stop offset="0" stop-color="#78d062"/><stop offset="1" stop-color="#36b754"/></linearGradient><linearGradient id="ugfgaq" x1="26.32" x2="26.32" y1="20.11" y2="20.21" gradientUnits="userSpaceOnUse"><stop offset="0" stop-color="#78d062"/><stop offset="1" stop-color="#36b754"/></linearGradient><linearGradient id="ugfgar" x1="27.57" x2="27.57" y1="20" y2="20.13" gradientUnits="userSpaceOnUse"><stop offset="0" stop-color="#78d062"/><stop offset="1" stop-color="#36b754"/></linearGradient><linearGradient id="ugfgas" x1="28.07" x2="28.07" y1="19.93" y2="20.84" gradientUnits="userSpaceOnUse"><stop offset="0" stop-color="#78d062"/><stop offset="1" stop-color="#36b754"/></linearGradient><linearGradient id="ugfgat" x1="27.78" x2="27.78" y1="20.8" y2="21.07" gradientUnits="userSpaceOnUse"><stop offset="0" stop-color="#78d062"/><stop offset="1" stop-color="#36b754"/></linearGradient><linearGradient id="ugfgau" x1="26.34" x2="26.34" y1="23.53" y2="23.6" gradientUnits="userSpaceOnUse"><stop offset="0" stop-color="#78d062"/><stop offset="1" stop-color="#36b754"/></linearGradient><linearGradient id="ugfgav" x1="24.71" x2="24.71" y1="19.09" y2="19.21" gradientUnits="userSpaceOnUse"><stop offset="0" stop-color="#78d062"/><stop offset="1" stop-color="#36b754"/></linearGradient><linearGradient id="ugfgaw" x1="24.62" x2="24.62" y1="19.53" y2="19.79" gradientUnits="userSpaceOnUse"><stop offset="0" stop-color="#78d062"/><stop offset="1" stop-color="#36b754"/></linearGradient><linearGradient id="ugfgax" x1="24.3" x2="24.3" y1="19.4" y2="19.53" gradientUnits="userSpaceOnUse"><stop offset="0" stop-color="#78d062"/><stop offset="1" stop-color="#36b754"/></linearGradient><linearGradient id="ugfgay" x1="24.19" x2="24.19" y1="19.52" y2="19.85" gradientUnits="userSpaceOnUse"><stop offset="0" stop-color="#78d062"/><stop offset="1" stop-color="#36b754"/></linearGradient><linearGradient id="ugfgaz" x1="23.87" x2="23.87" y1="19.98" y2="20.08" gradientUnits="userSpaceOnUse"><stop offset="0" stop-color="#78d062"/><stop offset="1" stop-color="#36b754"/></linearGradient><linearGradient id="ugfgaA" x1="23.71" x2="23.71" y1="19.63" y2="19.87" gradientUnits="userSpaceOnUse"><stop offset="0" stop-color="#78d062"/><stop offset="1" stop-color="#36b754"/></linearGradient><linearGradient id="ugfgaB" x1="24.33" x2="24.33" y1="18.82" y2="18.94" gradientUnits="userSpaceOnUse"><stop offset="0" stop-color="#78d062"/><stop offset="1" stop-color="#36b754"/></linearGradient><linearGradient id="ugfgaC" x1="24.19" x2="24.19" y1="18.97" y2="19.23" gradientUnits="userSpaceOnUse"><stop offset="0" stop-color="#78d062"/><stop offset="1" stop-color="#36b754"/></linearGradient><linearGradient id="ugfgaD" x1="23.61" x2="23.61" y1="19.25" y2="19.32" gradientUnits="userSpaceOnUse"><stop offset="0" stop-color="#78d062"/><stop offset="1" stop-color="#36b754"/></linearGradient><linearGradient id="ugfgaE" x1="23.72" x2="23.72" y1="19.37" y2="19.47" gradientUnits="userSpaceOnUse"><stop offset="0" stop-color="#78d062"/><stop offset="1" stop-color="#36b754"/></linearGradient><linearGradient id="ugfgaF" x1="23.8" x2="23.8" y1="19.12" y2="19.2" gradientUnits="userSpaceOnUse"><stop offset="0" stop-color="#78d062"/><stop offset="1" stop-color="#36b754"/></linearGradient><linearGradient id="ugfgaG" x1="23.9" x2="23.9" y1="19.31" y2="19.37" gradientUnits="userSpaceOnUse"><stop offset="0" stop-color="#78d062"/><stop offset="1" stop-color="#36b754"/></linearGradient><linearGradient id="ugfgaH" x1="23.97" x2="23.97" y1="19.43" y2="19.47" gradientUnits="userSpaceOnUse"><stop offset="0" stop-color="#78d062"/><stop offset="1" stop-color="#36b754"/></linearGradient><linearGradient id="ugfgaI" x1="24.04" x2="24.04" y1="19.17" y2="19.25" gradientUnits="userSpaceOnUse"><stop offset="0" stop-color="#78d062"/><stop offset="1" stop-color="#36b754"/></linearGradient><linearGradient id="ugfgaJ" x1="23.95" x2="23.95" y1="19.02" y2="19.09" gradientUnits="userSpaceOnUse"><stop offset="0" stop-color="#78d062"/><stop offset="1" stop-color="#36b754"/></linearGradient><linearGradient id="ugfgaK" x1="23.26" x2="23.26" y1="19.38" y2="19.57" gradientUnits="userSpaceOnUse"><stop offset="0" stop-color="#78d062"/><stop offset="1" stop-color="#36b754"/></linearGradient><linearGradient id="ugfgaL" x1="23.44" x2="23.44" y1="19.38" y2="19.45" gradientUnits="userSpaceOnUse"><stop offset="0" stop-color="#78d062"/><stop offset="1" stop-color="#36b754"/></linearGradient><linearGradient id="ugfgaM" x1="22.94" x2="22.94" y1="18.92" y2="19.32" gradientUnits="userSpaceOnUse"><stop offset="0" stop-color="#78d062"/><stop offset="1" stop-color="#36b754"/></linearGradient><linearGradient id="ugfgaN" x1="22.76" x2="22.76" y1="18.75" y2="18.98" gradientUnits="userSpaceOnUse"><stop offset="0" stop-color="#78d062"/><stop offset="1" stop-color="#36b754"/></linearGradient><linearGradient id="ugfgaO" x1="22.92" x2="22.92" y1="19.38" y2="19.45" gradientUnits="userSpaceOnUse"><stop offset="0" stop-color="#78d062"/><stop offset="1" stop-color="#36b754"/></linearGradient><linearGradient id="ugfgaP" x1="22.94" x2="22.94" y1="19.52" y2="19.63" gradientUnits="userSpaceOnUse"><stop offset="0" stop-color="#78d062"/><stop offset="1" stop-color="#36b754"/></linearGradient><linearGradient id="ugfgaQ" x1="23.36" x2="23.36" y1="18.84" y2="18.91" gradientUnits="userSpaceOnUse"><stop offset="0" stop-color="#78d062"/><stop offset="1" stop-color="#36b754"/></linearGradient><linearGradient id="ugfgaR" x1="27.99" x2="27.99" y1="14.76" y2="40.3" gradientUnits="userSpaceOnUse"><stop offset="0" stop-color="#78d062"/><stop offset="1" stop-color="#36b754"/></linearGradient><linearGradient id="ugfgaS" x1="42.99" x2="42.99" y1="31.22" y2="31.5" gradientUnits="userSpaceOnUse"><stop offset="0" stop-color="#78d062"/><stop offset="1" stop-color="#36b754"/></linearGradient><linearGradient id="ugfgaT" x1="46.38" x2="46.38" y1="30.43" y2="34.46" gradientUnits="userSpaceOnUse"><stop offset="0" stop-color="#78d062"/><stop offset="1" stop-color="#36b754"/></linearGradient><linearGradient id="ugfgaU" x1="49.85" x2="49.85" y1="33.79" y2="34.07" gradientUnits="userSpaceOnUse"><stop offset="0" stop-color="#78d062"/><stop offset="1" stop-color="#36b754"/></linearGradient><linearGradient id="ugfgaV" x1="50.25" x2="50.25" y1="33.88" y2="33.98" gradientUnits="userSpaceOnUse"><stop offset="0" stop-color="#78d062"/><stop offset="1" stop-color="#36b754"/></linearGradient><linearGradient id="ugfgaW" x1="50.02" x2="50.02" y1="32.88" y2="33.41" gradientUnits="userSpaceOnUse"><stop offset="0" stop-color="#78d062"/><stop offset="1" stop-color="#36b754"/></linearGradient><linearGradient id="ugfgaX" x1="50.16" x2="50.16" y1="32.58" y2="32.71" gradientUnits="userSpaceOnUse"><stop offset="0" stop-color="#78d062"/><stop offset="1" stop-color="#36b754"/></linearGradient><linearGradient id="ugfgaY" x1="50.28" x2="50.28" y1="31.76" y2="32.22" gradientUnits="userSpaceOnUse"><stop offset="0" stop-color="#78d062"/><stop offset="1" stop-color="#36b754"/></linearGradient><linearGradient id="ugfgaZ" x1="46.84" x2="46.84" y1="22.9" y2="23.46" gradientUnits="userSpaceOnUse"><stop offset="0" stop-color="#78d062"/><stop offset="1" stop-color="#36b754"/></linearGradient><linearGradient id="ugfgba" x1="49.25" x2="49.25" y1="23.58" y2="23.71" gradientUnits="userSpaceOnUse"><stop offset="0" stop-color="#78d062"/><stop offset="1" stop-color="#36b754"/></linearGradient><linearGradient id="ugfgbb" x1="49.59" x2="49.59" y1="28.09" y2="28.73" gradientUnits="userSpaceOnUse"><stop offset="0" stop-color="#78d062"/><stop offset="1" stop-color="#36b754"/></linearGradient><linearGradient id="ugfgbc" x1="49.86" x2="49.86" y1="29.05" y2="29.17" gradientUnits="userSpaceOnUse"><stop offset="0" stop-color="#78d062"/><stop offset="1" stop-color="#36b754"/></linearGradient><linearGradient id="ugfgbd" x1="50.34" x2="50.34" y1="30.83" y2="31.08" gradientUnits="userSpaceOnUse"><stop offset="0" stop-color="#78d062"/><stop offset="1" stop-color="#36b754"/></linearGradient><linearGradient id="ugfgbe" x1="49.64" x2="49.64" y1="23.25" y2="23.37" gradientUnits="userSpaceOnUse"><stop offset="0" stop-color="#78d062"/><stop offset="1" stop-color="#36b754"/></linearGradient><linearGradient id="ugfgbf" x1="41.44" x2="41.44" y1="15.89" y2="16.69" gradientUnits="userSpaceOnUse"><stop offset="0" stop-color="#78d062"/><stop offset="1" stop-color="#36b754"/></linearGradient><linearGradient id="ugfgbg" x1="6.92" x2="6.92" y1="25.55" y2="26.52" gradientUnits="userSpaceOnUse"><stop offset="0" stop-color="#78d062"/><stop offset="1" stop-color="#36b754"/></linearGradient><linearGradient id="ugfgbh" x1="5.73" x2="5.73" y1="32.87" y2="34.34" gradientUnits="userSpaceOnUse"><stop offset="0" stop-color="#78d062"/><stop offset="1" stop-color="#36b754"/></linearGradient></defs><g><g><path fill="url(#ugfga)" d="M15 56C6.716 56 0 49.284 0 41V15C0 6.716 6.716 0 15 0h26c8.284 0 15 6.716 15 15v26c0 8.284-6.716 15-15 15z"/></g><g><g><g><path fill="url(#ugfgP)" d="M36.167 20.557l-.138-.048-.07-.103-.033-.045-.013-.051.096.045.049-.049.067-.067.1-.1.06.074h.032l.08-.08.074-.086.141-.064.103.077-.058.16v.09l-.067.067-.106.048-.115.045h-.116z"/></g><g><path fill="url(#ugfgQ)" d="M35.657 21.009l-.097-.07-.115-.071-.115-.084.038-.083.061-.061.048.164.074.073.125.023.077-.032h.064l.064-.064-.032-.135h-.102l.025-.116v-.083l-.083.026h-.206l-.067.067-.106.074-.077-.077-.186.058.013.115.048.048.07.07.049.049-.07.057-.097-.083-.051.051-.07-.07-.16.032-.071-.039-.033.084.052.051-.097.051v.122l.078.077-.02.09h.07l.09.09-.025.103.115.057.154.007.064.064h.116l.135-.039v-.102l-.084-.077.045-.045.067.067.12-.215.111-.112.048.048.103-.102.032-.097-.115-.038z"/></g><g><path fill="url(#ugfgR)" d="M35.798 21.625l-.058.05.045.13.074.073.06-.119v-.096l-.044-.045z"/></g><g><path fill="url(#ugfgS)" d="M36.51 21.65h-.122l-.173-.058-.08.074-.074.074-.074.074.042.1.07.07-.045.102.039.039.058-.122.147-.032.128-.051.173-.103z"/></g><g><path fill="url(#ugfgT)" d="M34.618 21.464l-.058-.058-.103-.006.068.067.041.151h.084v-.083z"/></g><g><path fill="url(#ugfgU)" d="M31.41 23.96l-.118.118v.08h.1l.031.077.084-.039.096-.096v-.154h-.122z"/></g><g><path fill="url(#ugfgV)" d="M35.592 19.444l-.038.07.041.042.049-.042z"/></g><g><path fill="url(#ugfgW)" d="M35.272 22.304l-.039-.057-.122-.026-.038.032.07.032.09.07z"/></g><g><path fill="url(#ugfgX)" d="M30.063 22.356l-.025.038.057.039.026-.045z"/></g><g><path fill="url(#ugfgY)" d="M29.788 21.785l-.064.038.09.045.063.045.071-.02-.02-.082-.07.019z"/></g><g><path fill="url(#ugfgZ)" d="M28.877 22.157l.122-.096.07-.045.16-.084.129-.012.16-.122.077-.148-.051-.128-.058-.096-.077.032-.077-.135-.057-.058-.071.084-.045.122v-.09l.007-.16-.045-.09-.065.006-.09.11.007.095-.038.064.025.174-.077.077.007.173-.039.147-.032.148z"/></g><g><path fill="url(#ugfgaa)" d="M28.582 20.784l-.058.07-.051.097-.045-.02.032-.121v-.128l-.141.045s-.083.019-.103.025l-.115.038-.045.097-.026.083-.057.07.019.084-.11.083.052.045.077-.026.064.09.007.084.057.07.148.013.02.083.102-.064.05.084.142.051.135-.064.064-.09-.051-.103-.084-.115.064-.045.026-.109-.032-.122.013-.122z"/></g><g><path fill="url(#ugfgab)" d="M28.473 22.824l-.007-.077-.064.077-.083.02.077.057z"/></g><g><path fill="url(#ugfgac)" d="M27.395 22.721l-.032.052.045.038.058-.083z"/></g><g><path fill="url(#ugfgad)" d="M26.735 24.479l-.077.038s.032.096.032.084c0-.013.057-.026.057-.026z"/></g><g><path fill="url(#ugfgae)" d="M26.183 23.901l-.07.058.038.077.064-.013z"/></g><g><path fill="url(#ugfgaf)" d="M26.254 24.76l-.097-.018-.012.07h.109l.057.058.007-.096z"/></g><g><path fill="url(#ugfgag)" d="M25.882 20.99l-.097-.052-.038.039.045.025.07.052z"/></g><g><path fill="url(#ugfgah)" d="M25.394 25.409l-.045.057.026.077.045.058.064-.07.026-.084-.058-.058z"/></g><g><path fill="url(#ugfgai)" d="M25.048 25.761h.09l.083-.076-.077-.077-.077.019-.07.07-.078.064.071.052z"/></g><g><path fill="url(#ugfgaj)" d="M24.964 24.94l-.128-.025-.058.051.039.058.077-.051.096.025z"/></g><g><path fill="url(#ugfgak)" d="M24.541 25.171l-.032.084.051.045.058-.07z"/></g><g><path fill="url(#ugfgal)" d="M23.88 24.76l-.025-.006-.07.052.025.058-.051.07.012.045.116.032.109-.051.064.006v-.064l-.102-.026.05-.057-.057-.084z"/></g><g><path fill="url(#ugfgam)" d="M20.924 26.101l.07.02.026.134.135.013.044-.109-.064-.109.007-.122-.07-.16-.103.051-.077.026.019.167z"/></g><g><path fill="url(#ugfgan)" d="M18.66 25.248l-.084.11-.064.083.045.122.103.038.096.039.09-.065.109.02.057-.135-.09-.115-.006-.097-.115-.038z"/></g><g><path fill="url(#ugfgao)" d="M14.644 25.3l-.025.038.045.058.057-.058z"/></g><g><path fill="url(#ugfgap)" d="M21.63 23.138l.153-.006-.083-.084.134-.006.052.051-.007-.128.064-.064-.07-.083.045-.071.077.077h.096v-.096l.141.051.07-.077.071-.083h.09l.154-.07.109.038h.16l.106-.106.125.01.058.083h.135l.064.064.115-.032h.16l.106-.106.125-.067.167-.064h.154l.09.14v.155l-.135.121-.122.116-.16.013-.192.09-.174-.065-.083.084-.199-.007h-.256l-.097.103h-.198l-.148.083.045.103-.103.038-.121-.012h-.11l-.012.07-.116-.032v.116l-.115.083-.096.07v-.108l-.077.07.019.128h-.077l-.055-.054v.157l-.056-.056-.072.072-.06.06h-.084l-.064.084-.084.141h-.134l-.11.09v.122l-.109.045-.038.128-.09.09v.16l-.045.116.058.167-.051.166.07.11.032.115-.038.038-.11.052v-.084l-.102-.057h-.07l-.077-.116-.045.026-.135-.129-.103-.109.039-.115.103-.032.038-.064-.07-.058.006-.154-.045-.013-.045-.115-.096-.007-.077-.109.026-.14.102-.142.122.013.039.045.045.02.019-.084.147-.045.116-.122-.077-.083.102-.065.116.045.032-.096v-.096h.147l.07.07.075-.073.016-.068.16-.032-.054-.054-.138-.048v-.052l.16-.045.167-.044.083-.084h.11z"/></g><g><path fill="url(#ugfgaq)" d="M26.404 20.14l-.08-.032-.052.01-.035.035.053.053.072-.024z"/></g><g><path fill="url(#ugfgar)" d="M27.65 19.997l-.112.005-.047.048.037.037.04.04.082-.077z"/></g><g><path fill="url(#ugfgas)" d="M28.347 20.206l-.135-.135-.048-.106-.117-.032-.016.106-.095.042-.143.096v.132l.058.059-.077.077-.05.098.069.095.026.095.122.106.112-.106h.074l.111-.063.133-.043-.037-.127v-.159l.08-.069z"/></g><g><path fill="url(#ugfgat)" d="M27.735 20.813l-.09-.01.015.116v.074l.117.032.048.048.071-.072.04-.103-.069-.053z"/></g><g><path fill="url(#ugfgau)" d="M26.32 23.527l-.035.034.045.04.074-.021z"/></g><g><path fill="url(#ugfgav)" d="M24.772 19.111l-.064-.026-.053.016.042.058v.053h.075z"/></g><g><path fill="url(#ugfgaw)" d="M24.496 19.7l-.032.074.058.016h.117l.093-.093.069-.069-.024-.103-.085.01-.037.059-.138.026-.09.048z"/></g><g><path fill="url(#ugfgax)" d="M24.321 19.403l-.069.037-.03.03.057.055.1-.037v-.085z"/></g><g><path fill="url(#ugfgay)" d="M24.098 19.52l-.058.058-.042.085v.106l.09.016.02.063.112-.026.072-.072.053-.053.029-.087h-.08l-.119-.003z"/></g><g><path fill="url(#ugfgaz)" d="M23.923 19.991l-.063-.016-.035.035v.066h.072z"/></g><g><path fill="url(#ugfgaA)" d="M23.815 19.628l-.104.077-.037-.037h-.116v.08l-.064.063.037.037.127-.026.048.047.111-.026.032-.074.08.026-.043-.095z"/></g><g><path fill="url(#ugfgaB)" d="M24.3 18.82l-.032.063.056.056.053-.053z"/></g><g><path fill="url(#ugfgaC)" d="M24.183 18.968h-.085v.096l.09.09v.074l.08-.037-.048-.1z"/></g><g><path fill="url(#ugfgaD)" d="M23.653 19.244h-.074l-.016.016.06.06z"/></g><g><path fill="url(#ugfgaE)" d="M23.717 19.366l-.05.05.05.056.058-.005z"/></g><g><path fill="url(#ugfgaF)" d="M23.764 19.133v.069h.075l-.016-.08z"/></g><g><path fill="url(#ugfgaG)" d="M23.868 19.305v.06h.06l-.047-.047z"/></g><g><path fill="url(#ugfgaH)" d="M23.929 19.445l.026.027.048-.048z"/></g><g><path fill="url(#ugfgaI)" d="M24.003 19.164v.075l.064.005v-.08z"/></g><g><path fill="url(#ugfgaJ)" d="M23.907 19.016l.038.069.034-.035-.034-.034z"/></g><g><path fill="url(#ugfgaK)" d="M23.277 19.376l-.053.085-.04.04.069.069.077.003v-.128z"/></g><g><path fill="url(#ugfgaL)" d="M23.399 19.376l.026.075h.053v-.064z"/></g><g><path fill="url(#ugfgaM)" d="M23.197 19.037l.061-.06-.103-.062-.053.037-.053.053v.059l-.061.06-.109-.076-.09.048v.063l-.111-.08-.085.032.026.128.08-.027v.085l.085.021.077-.077.108-.045.09.027h.133l.095-.096z"/></g><g><path fill="url(#ugfgaN)" d="M22.847 18.838l-.047-.018h-.117l-.069-.069-.048.095.061.061.024.072.138-.048.048.048.09-.037.037.037v-.08l-.06-.06z"/></g><g><path fill="url(#ugfgaO)" d="M22.903 19.38h-.045l.016.065.095.006z"/></g><g><path fill="url(#ugfgaP)" d="M22.943 19.567l-.021-.047-.048.047.037.037.09.022z"/></g><g><path fill="url(#ugfgaQ)" d="M23.309 18.836v.069h.053l.053-.053z"/></g><g><path fill="url(#ugfgaR)" d="M41.933 17.643l.057-.205.215-.208.24-.24.11-.11.212-.092.152-.088.142-.142.145-.145.176-.07.127-.184.24-.07.128-.135.155-.07.1-.057.112.113.163-.05.145.11.095-.096.17-.091v-.085l-.17.035-.198-.014-.127-.035.043-.128.134-.092-.113-.028v-.063l.078.007.014-.128.07-.099.1-.098.169-.064h.05l.127-.177s.12-.035.162-.077c.043-.043 0 .12 0 .12l.092.078.07.07-.077.163s.106 0 .148-.043c.043-.042 0 .085 0 .085v.148l-.162.106.127.022.078-.078.166.064v-.075l.13.131.093.142.077-.022.078-.098v.091l.05.113h-.149v.057l.12.035-.063.184-.163.014-.148.163-.078.17-.148.049-.107-.043h-.134l-.12.177.053.106v.18l-.117.117-.091-.07-.092.07h-.134l-.078-.064-.071-.042-.01.067.052.053-.063.028-.043.043.124.021v.095l.096.096.155-.043h.106l.007.135.064-.064.11.11.116.116.056.205.029.163-.114.184h-.106l-.148.063-.05.113.12-.05h.078l-.113.135.071.07.092-.035v-.134l.085-.064.152-.003.088-.089.043-.07.106.007.084-.014.156-.007v.099h.127l.035-.068h.124l.074-.074.092-.014.078.064.113-.085.053.124.102.102v.149l-.14.056-.093.198h-.148l-.042.064.166.11-.054.052.12.184.05.226v.254l.042.198.071.17.036.226.07.22.135.12v.204l.07.283.12.134.078.078-.12.106-.127-.064-.177.057-.092.212-.148.212.078.078-.057.198v.106l.12.183v.114l-.134-.064-.1-.099-.084.007.078.205v.134l.13.06-.13.131h-.085v.184l-.078.078.106.176.085.085.1.1.133.133.029.198.02.156.195.102.117.117h.198l-.053-.12v-.06l.067-.068.05-.106.183.184.035.163.184.127.182.04.073-.072h.116l.138.138-.057.134-.14.043.042.17.148.247.13.031.103.103.24-.028.142.113.05.127-.086.057-.12.077-.07.156.05.283.14.219.124.046.06.06.205.05v.084l-.155.021v.127l-.057.128.07.254.121.05.184.183.134.128.028.225.071.297.035.191v.142l-.077-.106h-.205l-.131-.067-.103-.103h-.141l-.127-.127-.247-.113-.234-.1-.268-.14-.078-.107-.127-.084-.142-.029-.304-.092-.197-.106-.191-.127-.092-.17-.205-.204-.141-.149v-.148l-.1-.1-.02-.162-.12-.17-.132-.028v-.06l.06-.06.05-.106-.067-.116.064-.064.052-.053-.07-.212-.035-.226-.085-.262-.135-.176-.056-.234-.064-.219-.07-.177-.085-.261-.085-.07-.007-.142.05-.17v-.219l-.086-.085-.091-.176h-.092l-.089-.032-.08-.081-.1-.128-.148-.091v-.163l.134-.127-.046-.046-.11.11-.155.084v.149l-.042.113.085.077.123.124.117.117h.141l-.014.092-.064-.007-.067.095.088.088v.226l.071.17.014.269-.049.162-.057-.141-.127-.064v.177l-.106-.106-.07-.07-.057-.12-.198-.184.057.155-.057.17h-.19v.113l-.064.233-.078.092.007.31.127.086-.021.197.127.198v.212l.039.28.117.116v.127l.099.1.092-.015.08-.074.06-.06h.107l-.007.134-.113.036v.19l-.212.036.05.247-.022.106-.134.057v.148l-.05.134s-.166.04-.134.007c.032-.031-.064-.063-.064-.063v-.092l.029-.092.116-.039-.053-.053-.127.05-.134.02v.064l-.198.092-.1.12-.112.029-.092.092-.035.106.035.134.078.078-.092.099-.149-.057.046.152-.11.11-.098.091h-.085l-.085.078.057.092.042.042-.12.078h-.163l-.159.16-.102.102-.113.19-.12.12-.12.241-.022.233.113.226-.106.106-.035.227.064.162.099.099-.085.141v.446l-.043.176v.24l.071.078v.36l-.064.241v.198l-.105.177v.176l-.057.156.063.143h.108l.083-.083h.117l.092-.092.102-.103.071.071.085.043v.092l.067.123.085.085.074-.074v-.113l-.1-.043v-.106l.079-.084v.07l.085.064.042-.014.042.042v.219l.142-.056v-.071l.078-.106.049-.042.078.056.017-.117-.067-.067-.063-.12-.078-.141.127-.071.078-.078.155-.035h.184l.152.018.067.067s.163-.028.198-.028a.603.603 0 0 0 .134-.043l.089.089-.067.067-.05.05-.042.077h.247l.028.092.106.106.131-.018.067.067.07.135.022.268.092.283.145.208.18.18.07.071.036.12.142.142.098.17.036.098.13.202.11.109v.297l-.042.255.077.254-.007.261.078.205.057.227.042.205.042.275v.269l-.042.141V36.762l-.042.253.042.262-.014.34v.162l-.142.233-.091.198-.106.198h-.092l-.177.07-.148.085-.103-.042v-.096l-.053-.053-.053.12v.131l-.06-.06-.092-.092v.071l-.028.177.028.12-.039.138-.06.06v.183l-.134-.007-.057-.056.05-.163.085-.17v-.14l-.075-.167-.152-.152-.077-.077-.064-.163-.134-.134-.127-.043-.004-.138.089-.088.077-.078v-.141l.1-.099.112-.056.117.039.102-.103.064-.127-.113-.177.056-.148-.07-.156-.014-.163-.1-.134.029-.113-.078-.134-.035-.156-.141-.148.106-.106v-.156l-.089-.088-.102-.102-.028-.092h-.12l-.17.092-.043.14-.113.185-.127.162.057.177-.149.12-.148.085-.127.042-.036.127h-.134l-.134-.077-.1-.035v-.163l-.113-.099-.091-.092-.152-.039-.082.081-.162-.042-.134-.035-.205.028h-.191l-.078.078-.212.078-.212-.043-.088-.173-.103-.103s-.12-.07-.12-.099c0-.028-.134-.134-.134-.134l-.17-.028-.07-.17-.163-.127-.113-.113-.156-.042-.056-.149-.142-.063-.084-.085-.283-.028h-.149l-.17.091-.211-.035-.163.057h-.176l-.24.176-.114.113-.222.131-.11.11-.078.233-.056.141.078.1.109-.09.088.09.1.098.056.226-.057.12-.042.304v.191l-.078.198.106.205.064.064v.198l-.149.042-.095.223-.138.138-.233.084-.262-.02-.19-.036-.142.085-.198.113-.148-.078-.134-.05-.177.078-.149.149-.106.106-.06.208-.123.124-.163.113-.226.106-.173.173-.088.088h-.227l-.205.064h-.29l-.211.028-.191-.063-.057-.106-.099-.1h-.268l-.248-.035-.099-.063-.325.046h-.201l-.166.166-.184.042-.177.05-.254-.022-.173-.074-.11-.11-.102-.215-.131-.13-.184-.071h-.176l-.202.053-.138-.138h-.275l-.163-.12-.081.081-.11.11-.088.18-.096.095-.028.184.089.106v.159l.123.124v.17l-.166.109-.159.159H30.06l-.19-.05-.199.036-.141-.043-.205-.07-.113-.114-.135-.134-.162-.05-.19.078-.121-.12-.152-.067-.124.124h-.155l-.05.148h-.183l-.234.149-.141.141h-.141l-.029.149-.166.038-.116.117-.212-.007-.177.099-.092.092-.205-.036-.064-.106-.077-.141-.04-.145-.109.11-.183.07-.17-.056-.19-.05v-.17l-.15-.091-.056-.127-.12-.078-.028-.17-.1-.092-.132-.058-.086-.086h-.18l-.089.088-.177.028-.07-.07-.156.028-.085-.085-.077-.078v-.106l-.078-.091-.113.035-.078.162-.156.028-.091-.183-.05-.163-.035-.183-.12-.213v-.17l-.113-.105v-.233l-.085-.283-.12-.12-.078-.078-.081-.173-.089-.088-.12-.05v-.127h.1l.084-.113-.035-.1h-.128l-.106.107-.148.007-.11.003-.116.117-.198.057-.17.091-.078-.113-.148.071h-.12l.042-.19.17-.079v-.098h-.141l-.128-.078-.077.078-.142-.043.046-.166-.102-.103-.142.085-.155-.042-.039-.124.088-.088v-.134l.036-.1-.057-.176-.106-.05h-.127l-.064-.127h-.176l-.142-.085-.155-.014-.085.12h-.177l-.155.043-.127-.07-.156.027h-.19l-.184-.095h-.075l-.081.081-.141.029-.135-.071h-.12l-.162-.05-.24.007-.177-.035-.128.035-.113-.099-.162-.084h-.149l-.05.155.05.106-.099.1.078.049.078.077.095.096-.088.088h-.099l-.12-.12-.184.007-.12.05.05.176-.05.127-.12.036-.141-.036-.057.149.046.102.099.1.067.066.028.12.1.1-.1.134-.092.092h-.155l-.16.01-.08-.08-.057-.116h-.072l-.076.076h-.124l-.138-.138-.026-.08-.105-.103v-.18l-.088-.09h-.163l-.134.05-.05-.106-.133-.106-.12-.063-.163.078-.149.02-.12-.035-.085-.162-.12-.106-.085.141h-.092v-.113l.085-.085-.056-.12-.07-.183-.03-.191-.105-.128-.17-.063-.05-.12-.091-.092-.17.028H13.5v-.134l-.05-.142-.172-.032-.089.089-.162.056-.142-.077h-.148l-.07.106h-.312l-.035.078-.092.091-.014.135-.173-.032-.103-.103v-.141l.046-.138-.074-.074h-.12l-.05.113-.091.067h-.138l-.11.11-.092.092v.127l-.12.05-.127-.008-.092.092-.113.078.046.138.102.102-.042.184-.092.092.092.056.134.128.085.084-.035.184.038.24v.195l-.074.074-.07-.078-.106-.014.014.127.06.124.088.089-.07.07-.12.014h-.241s-.085.01-.152.01c-.067 0-.053-.052-.053-.052l-.106-.029-.05-.049-.127-.021v.099l-.099.042-.12.142h-.134l-.148.042-.087-.023-.072.072v.117l.074.074.042.135-.035.134-.032.123-.081.082v.05l-.07.063-.156.254v.198l.042.24-.028.184.014.226-.17.078-.113-.05-.162.057-.156-.035-.021-.134L8.588 39l-.014-.17-.113-.077v-.092l-.056-.148-.1-.128.064-.106.043-.12-.106-.113-.036-.127-.12-.014-.025-.074-.088-.089-.155-.02-.1-.1-.028-.226-.099-.092.029-.141-.12-.1-.064-.162-.106-.05-.156-.105-.049-.17-.106-.162-.035-.142-.078-.014-.057-.07-.07-.1-.092.015-.057-.17.021-.325-.028-.24-.056-.12-.071-.107.014-.212-.085-.077-.056-.113.042-.128-.035-.141.077-.078.085-.014.113.141.106.036.05-.106.12-.05.163-.007h.084l.106.036.022-.177-.057-.106.028-.092.085.014.078.057.085.077.063-.063.1.042.162.021.12.05.028-.127-.085-.064-.12-.028-.077-.078-.085-.028.106-.113.155-.07.134.055.12-.049.114.12.17.184.155-.156.106-.063-.029-.156.1-.099.099.014-.008-.113.262-.035.05-.12.056-.07-.12-.057v-.149l-.113-.127-.043-.162-.106-.064-.113-.127.042-.149-.042-.219-.134-.099-.156-.12-.05-.162-.105-.085-.035-.1.091-.105.071-.156v-.148l-.078-.141-.077-.12.07-.057.043-.106h.085l.063-.057.05-.19.014-.114-.057-.14-.078-.079-.106-.014-.077-.085-.064-.091-.095.08-.075-.073-.063-.106.063-.114.135-.134.092-.106.035-.127.106-.007.078.085.042.106.142.05.134-.043.035-.142.042-.155-.106-.106.071-.05-.007-.12.042-.17.078-.183.057-.156.141-.042.05-.106.134-.113v-.24l-.12-.114-.135-.035.043-.106.035-.113-.099-.099-.063-.141.02-.1.135-.133.078-.142-.035-.127.113-.028.17-.106v-.149l.07-.084.177-.007.077-.092.008-.106.148-.057.12-.163.163.008.14-.085.192.042.028-.106.064-.064.12.057.099.106.155.05.057.127.056.141.085-.085-.014-.205-.127-.113v-.24l.113-.028.035-.036-.155-.063-.092-.106 1.583-.007.297-.106v-.184l.05-.467h.197l.17-.134v-.184l.127-.05v-.24l.113-.007.247-.197.12.056.262-.488.018-.13.215-.216h.36l.114-.198v-.381l.226-.114.297-.148.205.078h.12l.099.099.121-.085-.03.148.12-.014.17.007v.113l.036.128-.078-.05-.081-.081-.074.074.035.135v.134l.12.063.092.092v.149l.102.05v.165l.117.117.057.198v.205l-.036.177.043.098.003.216.124.124-.007.155-.029.254-.123.216-.187.187h-.198l-.22.043-.19-.07-.209-.118-.13-.13v-.191l-.135-.134-.063-.149-.05-.141-.092-.156-.05-.261-.098-.043.032-.159.081-.081-.099-.099-.046.124-.067.067.028.155.004.18-.078.078.103.103-.029.155-.099.22-.173.052-.138.138-.053.251-.13.131.042.148.064.184-.103.18.145.145.155.156.177-.127.036-.177-.092-.092.014-.156v-.12l.12-.127h.12l.042.318.04.209.123.123.078.163.201.06.06-.06-.05-.12.12-.1.008-.247.219.036.205-.078.17.092.19-.06h.131l.081.081.12.184-.098.099v.155l.088-.11.124-.123.17-.035.14-.205V25.7l.057-.12.184-.092v-.113l.177-.106v-.177l-.029-.17h.12l.04.089.158.159.12.184v.247l-.042.127-.063.064-.106-.106-.149-.035-.226.077v.184l.057.17v.14l.162.043.156.071.176-.085v-.127l.184-.042.177.084-.028-.113.275.05.149-.028.268.035h.156l.077.141h.071v-.127l.226-.07h.12l.05.183h-.134l-.043.127-.106.036.163.148h.113l.212-.092.201.039.22.22.074-.075h.148l.187-.06.074.074-.02.099-.114.078v.12l.134.113.011-.13.06-.06.142.034v-.113l.134-.02.028-.17-.021-.205.127-.064.11-.032.13.13.057-.056.145.18.166.167.134.134.088.18.167.166.113.177.12.162v.142l.099.156.141-.085v-.149l.163-.148-.113-.035-.078-.184.028-.198-.134-.092-.074-.152.067-.067.141-.07v-.114l.035-.17.064-.084v-.106l-.092-.029.05-.141.077-.099.142-.05.152-.074.053-.053.12-.12.092-.205.07-.17.078-.169.134-.07.085.12h.17l.085.084h.148l.064.24-.071.071-.032.258-.201.202-.057.184.12.106-.042.24-.035.19-.142.213-.05.304-.077.268-.056.135.053.187.123.123-.021.113-.155.12-.029.262-.155.043-.184.183-.106.156-.099.056-.177-.035-.106.07-.116-.074-.075-.074-.105-.035v.134l.105.163.106.05.142.098.12-.007.085.12h.127s.053-.095.025-.123c-.029-.029.074-.075.074-.075h.092l.042-.042.177-.05.141-.077v-.149l.064-.063.11-.11.088-.088.042-.17-.035-.148-.014-.135.095-.095.096-.095h.148l.162-.021.046.137.068.068.084.218-.113.114.008.17v.105l.14.142.163.035v-.099l-.159-.046-.06-.06v-.085l-.014-.127.113-.035.043-.092-.043-.134.05-.114-.07-.141-.093-.085-.056-.056-.174-.06-.098-.1-.082.082-.106.05-.056-.078h-.127l-.022-.135.085-.084-.021-.227.099-.155.064-.184.14-.14-.049-.157-.042-.134.018-.145-.103-.102.113-.113.177-.177h.148l.085-.134.057-.149-.05-.12.05-.106h.113l-.036.149v.205l-.028.183-.127.127v.304l.148.113.085.071.11-.067.11.11.12.112v-.084l-.047-.11-.08-.081-.128-.064v-.056l-.106-.106-.05-.156.149-.099.07.071.114.113.084-.078-.028-.092-.01-.081.08-.081.142.028.117-.018.095.096.184.099-.05.141.046.046.124.124h.191l.028-.113-.077-.106.007-.1-.135-.049-.099-.162-.056-.057.042-.17.064-.14-.057-.057-.035-.177.141-.127h.333l.169.063v-.042h.276l.184-.078h.134l.07-.07-.07-.106-.085-.029-.07-.07.08-.082c.053-.053.053.054.053.054l.085-.022-.056-.064.039-.088-.06-.06.07-.099.1-.078-.1-.007-.007-.106.198.007.078-.162.194-.074.074-.075.265-.038.067-.068.191-.056.043-.05-.127-.042.07-.07.184-.043.156-.021.035-.078.127-.021-.067.127v.102l.088-.088.22.007.02-.113.142-.028.141.028-.063-.085-.085-.063-.042-.078h.155l.163-.05h.05l-.015-.12-.057-.042v-.17l.036-.113.106-.261.127-.092.113-.12.141.085.106-.015.032.145-.11.11-.091.12.224.012.044-.044h.138l.103.103-.092.092s-.007.091.035.091.156.05.156.05l.035-.12-.064-.064.156-.085h.141l.145-.102.081.081.11-.053.081.081.07.142.086.07.05-.056.073.074.096.095-.014.149-.142-.028.057.056.141.078.088.152-.08.081v.141l-.072.1-.067.137-.08.082-.142.17v.07l-.043.198-.106.106-.042.219-.17.042-.053.16-.116.116-.029.184-.035.127.127-.057-.028-.141.127-.078s.113-.035.177-.035c.063 0 .085-.127.085-.127l.12-.1.113-.041.067-.131-.053-.053-.085-.007.007-.057-.007-.113.106-.007h.085l.12.028.142.057.028-.085.088-.124.074.074v.142l.085.12h.1l-.1-.092.067-.067.131-.13.177-.093.268-.05.212-.063.053.081-.049.05.117.116h.219l.007-.056.02-.078.086.134.148-.056.148-.127s.156-.028.191-.028c.036 0 0-.128 0-.128l-.02-.141-.107-.163.028-.162.022-.085.084.085.089-.067.074.074.113.078.028-.085.057-.014.056.063.057-.042s-.007-.13.046-.13.067-.068.067-.068l.156.12.049-.05.17.057-.057.173h.081l.082.082v.134l.134-.085.07.07v.156l-.091.029-.057.056.1.099s.077-.035.077-.07c0-.036.064.063.064.063v.113l.144-.004.138.138.106.07.149.03.063-.064.163.084.014-.134-.07-.233-.043-.106v-.1l-.092-.091v-.127l.177.021.099.099.155-.042h.177l-.036-.184.1-.184.183-.042.135-.007.155.042v-.106l-.166-.074.06-.06.078-.085.134.007.106-.106-.05-.028-.105-.106-.12-.064v-.155l-.05-.043-.07.184-.086-.057v-.148l.156-.141-.021-.1-.149-.091.092-.092h.134l.198-.099.057-.163.261-.099.205-.091s.029.028.029.07c0 .043-.135.092-.135.092l-.05.191.121-.057.106-.106.134.043-.035.275.12-.113v-.134l-.042-.226.028-.1.064-.176.148-.07.212-.092.127.091s-.06.082-.106.128.05.078.05.078h.155l.1-.113s.112.12.134.14c.02.022-.022-.162-.022-.162l.191-.106.134.071.149-.007.134-.135.141-.176v-.205l.177-.262.149-.148.134-.162.233-.036.194-.01.096.095.198.198.176-.078.128-.102h.137l-.067-.067v-.1l.135-.134v-.233l.063-.12h.106l.092-.092v-.141l.177-.128.042-.17-.07-.07.028-.085-.1-.141.079-.141.074-.075.134.135-.102.102.106.106h.162l.113-.042.156-.07.141-.036.035-.113-.042-.114-.078-.014-.24-.106-.177.029-.042-.1h-.142v-.077l.036-.134.127-.064.014-.148.113-.064h.1l-.043-.12.042-.127z"/></g><g><path fill="url(#ugfgaS)" d="M42.925 31.241l-.06.067v.178l.103-.043.055.055.061-.061.025-.123-.067-.098z"/></g><g><path fill="url(#ugfgaT)" d="M44.625 30.611l-.049.012-.036-.104v-.091l.159.043.08.036.042.098.086.086.152.03.037.098.171.11h.092l.073.104.062.165.094.095.18.186.117.031.159.061.153.135.208.116.134.116.178.092.152.091.098.08.171.067-.024.08-.061.06-.116.038h-.092l.025.128-.025.092v.073l.104.159s.098.11.08.128c-.019.019.006.19.006.19l.08.08.121.122.104.067h.16l.091.092h.104l.055.116.135.006.082-.082.144.082.086.11s.03.074 0 .074c-.031 0-.196-.08-.196-.08l-.07.07h-.156l-.05.126.031.122.098.098.073.159-.097.08-.08-.098-.104-.104-.183-.172v-.116l-.123-.122-.116-.116-.08-.104-.097-.19-.122-.116-.129-.073-.122-.037-.104-.22-.226-.312-.184-.183-.153-.153-.134-.184-.086-.14-.232-.104-.184-.08-.11-.012-.146-.202v-.091l-.16-.16-.085-.159-.171-.055.043-.122v-.092l.14.043.025-.122-.083-.083v-.046l-.08-.08z"/></g><g><path fill="url(#ugfgaU)" d="M49.792 33.803l.025.128.012.123.05.018v-.098l.036-.08v-.11z"/></g><g><path fill="url(#ugfgaV)" d="M50.214 33.876v.055l.08.043v-.092z"/></g><g><path fill="url(#ugfgaW)" d="M49.945 33.039l.04.04-.034.119.013.183.073.03.025-.097-.037-.196.067-.067-.012-.14-.104-.031z"/></g><g><path fill="url(#ugfgaX)" d="M50.147 32.574l-.03.03.024.104.05-.073z"/></g><g><path fill="url(#ugfgaY)" d="M50.22 32.2l.031-.158-.043-.098.025-.104.082-.082.022.113-.019.116.025.134-.043.098z"/></g><g><path fill="url(#ugfgaZ)" d="M46.741 23.077l-.012.123.073.049.05.06.005.11.098.037-.024-.11-.043-.085.043-.14v-.172l-.117-.049-.073.043z"/></g><g><path fill="url(#ugfgba)" d="M49.37 23.707l.092-.092-.116-.036-.116.049-.11-.043-.086.03.043.092h.147z"/></g><g><path fill="url(#ugfgbb)" d="M49.735 28.474l-.052-.126-.086-.085.006-.11-.061-.061-.037.11-.058.058.068.067.039.083-.012.11-.006.14.064.065.07-.04v-.147z"/></g><g><path fill="url(#ugfgbc)" d="M49.805 29.046v.091l.06.03.044-.054z"/></g><g><path fill="url(#ugfgbd)" d="M50.3 30.837v.245h.086l-.025-.104V30.831z"/></g><g><path fill="url(#ugfgbe)" d="M49.72 23.248l-.08.019-.08.055.043.043.058-.058z"/></g><g><path fill="url(#ugfgbf)" d="M41.247 16.086l.008.15-.038.038.019.121.07.103.073.169.112.023.076-.076.057-.104-.063-.068.093-.135-.016-.148v-.175l-.09-.073-.057-.02-.05.05-.107.057z"/></g><g><path fill="url(#ugfgbg)" d="M7.207 26.025l.056.092.057.038.02.137-.05.103-.235.119-.357-.424-.207-.474.11.025.095-.027.035-.07.086.014.08.08.003.108.065.02.013.086.101.018.023-.081-.055-.055.047-.047.03.03.097.08v.122z"/></g><g><g><path fill="url(#ugfgbh)" d="M5.64 33.067l-.039-.034-.048-.039-.036-.026-.033-.022-.131-.003-.076.008-.065-.037-.063-.02-.037-.022-.056.05.008.07.054.028.064.02.036.102.008.079-.02.063.01.087-.027.082-.09.045-.047.05-.069.007-.052.084.028.103.026.077.102.067.112-.012.066-.034.099-.046.072.02.092.06.027.052.026.032.047.043.108.037.112.002.127-.002.051.107.03.077.148.096.144.027.051-.083.121.019-.115-.117-.013-.047-.021-.035-.022-.024-.129-.02-.141-.078-.1-.156.062-.093.03-.135-.017-.124-.018-.017-.04-.03-.008-.022.03-.134-.071-.072-.003-.111-.082-.014-.014.056-.068-.007-.089.015z"/></g></g></g></g></g></svg>