<svg xmlns="http://www.w3.org/2000/svg" width="56" height="56" viewBox="0 0 56 56"><defs><linearGradient id="qovaa" x1="-1350" x2="-1350" y1="-468" y2="-468" gradientUnits="userSpaceOnUse"><stop offset="0" stop-color="#fff"/><stop offset="1" stop-color="#c0e8c8"/></linearGradient><linearGradient id="qovab" x1="39.76" x2="39.76" y1="9.24" y2="24.85" gradientUnits="userSpaceOnUse"><stop offset="0" stop-color="#78d062"/><stop offset="1" stop-color="#36b754"/></linearGradient><linearGradient id="qovac" x1="17.06" x2="17.06" y1="31.97" y2="47.58" gradientUnits="userSpaceOnUse"><stop offset="0" stop-color="#78d062"/><stop offset="1" stop-color="#36b754"/></linearGradient><linearGradient id="qovad" x1="28.4" x2="28.4" y1="22.61" y2="34.22" gradientUnits="userSpaceOnUse"><stop offset="0" stop-color="#78d062"/><stop offset="1" stop-color="#36b754"/></linearGradient><linearGradient id="qovae" x1="35" x2="35" y1="12.42" y2="31.21" gradientUnits="userSpaceOnUse"><stop offset="0" stop-color="#78d062"/><stop offset="1" stop-color="#36b754"/></linearGradient><linearGradient id="qovaf" x1="21.82" x2="21.82" y1="25.62" y2="44.41" gradientUnits="userSpaceOnUse"><stop offset="0" stop-color="#78d062"/><stop offset="1" stop-color="#36b754"/></linearGradient></defs><g><g><path fill="url(#qovaa)" d="M15 56C6.716 56 0 49.284 0 41V15C0 6.716 6.716 0 15 0h26c8.284 0 15 6.716 15 15v26c0 8.284-6.716 15-15 15z"/></g><g><g><g><g><path fill="url(#qovab)" d="M46.904 21.02l-3.17-3.17 2.383-2.383a1.122 1.122 0 0 0 0-1.588l-3.19-3.19c-.422-.422-1.168-.422-1.589 0l-2.382 2.383L35.785 9.9a2.246 2.246 0 0 0-3.177 3.177l11.12 11.119a2.247 2.247 0 0 0 3.176-3.177z"/></g></g></g><g><g><g><path fill="url(#qovac)" d="M24.2 43.746L13.083 32.627a2.247 2.247 0 0 0-3.177 3.177l3.17 3.17-2.378 2.378a1.122 1.122 0 0 0 0 1.589l3.191 3.19a1.12 1.12 0 0 0 1.588 0l2.378-2.378 3.17 3.17a2.246 2.246 0 0 0 3.177-3.177z"/></g></g></g><g><g><g><path fill="url(#qovad)" d="M29.431 22.608l-6.819 6.842 4.766 4.766 6.819-6.843z"/></g></g></g><g><g><g><path fill="url(#qovae)" d="M43.727 27.374L29.431 13.078a2.246 2.246 0 0 0-3.177 3.177L40.55 30.55a2.246 2.246 0 0 0 3.177-3.176z"/></g></g></g><g><g><g><path fill="url(#qovaf)" d="M30.555 40.57L16.259 26.272a2.246 2.246 0 0 0-3.177 3.177l14.296 14.296a2.246 2.246 0 0 0 3.177-3.177z"/></g></g></g></g></g></svg>