<svg xmlns="http://www.w3.org/2000/svg" width="56" height="56" viewBox="0 0 56 56"><defs><linearGradient id="3si9a" x1="-570" x2="-570" y1="-891" y2="-891" gradientUnits="userSpaceOnUse"><stop offset="0" stop-color="#fff"/><stop offset="1" stop-color="#ffe2cc"/></linearGradient><linearGradient id="3si9b" x1="16.14" x2="16.14" y1="13.48" y2="15.57" gradientUnits="userSpaceOnUse"><stop offset="0" stop-color="#ffb871"/><stop offset="1" stop-color="#ff7334"/></linearGradient><linearGradient id="3si9c" x1="27.98" x2="27.98" y1="13.48" y2="43.45" gradientUnits="userSpaceOnUse"><stop offset="0" stop-color="#ffb871"/><stop offset="1" stop-color="#ff7334"/></linearGradient><linearGradient id="3si9d" x1="27.99" x2="27.99" y1="21.84" y2="37.87" gradientUnits="userSpaceOnUse"><stop offset="0" stop-color="#ffb871"/><stop offset="1" stop-color="#ff7334"/></linearGradient><linearGradient id="3si9e" x1="28" x2="28" y1="27" y2="33" gradientUnits="userSpaceOnUse"><stop offset="0" stop-color="#ffb871"/><stop offset="1" stop-color="#ff7334"/></linearGradient></defs><g><g><path fill="url(#3si9a)" d="M15 56C6.716 56 0 49.284 0 41V15C0 6.716 6.716 0 15 0h26c8.284 0 15 6.716 15 15v26c0 8.284-6.716 15-15 15z"/></g><g><g><path fill="url(#3si9b)" d="M17.18 13.479h-2.09a2.09 2.09 0 0 0-2.092 2.09h6.273a2.09 2.09 0 0 0-2.091-2.09z"/></g><g><path fill="url(#3si9c)" d="M40.529 22.54a1.045 1.045 0 1 1 0-2.092 1.045 1.045 0 0 1 0 2.091zM27.983 39.962c-5.572 0-10.106-4.533-10.106-10.106 0-5.572 4.534-10.106 10.106-10.106 5.573 0 10.106 4.534 10.106 10.106 0 5.573-4.533 10.106-10.106 10.106zm-14.288-18.47c0-.577.468-1.045 1.046-1.045h2.09a1.045 1.045 0 0 1 0 2.091h-2.09a1.045 1.045 0 0 1-1.046-1.045zM35.01 17.66l-.679-2.037a3.133 3.133 0 0 0-2.975-2.144H24.61a3.132 3.132 0 0 0-2.975 2.144l-.68 2.037h-6.982a3.838 3.838 0 0 0-3.833 3.834v18.12a3.838 3.838 0 0 0 3.833 3.834h28.018a3.838 3.838 0 0 0 3.833-3.833V21.494a3.838 3.838 0 0 0-3.833-3.834z"/></g><g><path fill="url(#3si9d)" d="M27.983 35.433a5.582 5.582 0 0 1-5.576-5.576 5.582 5.582 0 0 1 5.576-5.575 5.582 5.582 0 0 1 5.576 5.575 5.582 5.582 0 0 1-5.576 5.576zm0-13.59c-4.42 0-8.015 3.595-8.015 8.014 0 4.42 3.596 8.015 8.015 8.015 4.42 0 8.015-3.595 8.015-8.015s-3.595-8.015-8.015-8.015z"/></g><g><path fill="url(#3si9e)" d="M25 30a3 3 0 1 1 6 0 3 3 0 0 1-6 0z"/></g></g></g></svg>