<svg xmlns="http://www.w3.org/2000/svg" width="56" height="56" viewBox="0 0 56 56"><defs><linearGradient id="orlda" x1="-1350" x2="-1350" y1="-891" y2="-891" gradientUnits="userSpaceOnUse"><stop offset="0" stop-color="#fff"/><stop offset="1" stop-color="#fdd8d8"/></linearGradient><linearGradient id="orldb" x1="36.38" x2="36.38" y1="9.58" y2="25.91" gradientUnits="userSpaceOnUse"><stop offset="0" stop-color="#f77"/><stop offset="1" stop-color="#f02e2e"/></linearGradient><linearGradient id="orldc" x1="25.83" x2="25.83" y1="9.58" y2="47.29" gradientUnits="userSpaceOnUse"><stop offset="0" stop-color="#f77"/><stop offset="1" stop-color="#f02e2e"/></linearGradient></defs><g><g><path fill="url(#orlda)" d="M15 56C6.716 56 0 49.284 0 41V15C0 6.716 6.716 0 15 0h26c8.284 0 15 6.716 15 15v26c0 8.284-6.716 15-15 15z"/></g><g><g><g><g><path fill="url(#orldb)" d="M31.189 9.578l-1.83 3.805.62 1.258.62 1.259 3.693 7.49.62 1.258.62 1.258 7.855-16.328z"/></g></g></g><g><g><g><path fill="url(#orldc)" d="M38.375 35.475l-6.942-1.009-2-4.052v-2.276h7.278v-2.21h-1.168l-.01-.022-.01.022h-2.441L25.02 9.578H13.269l7.866 16.35h-1.19v2.21h7.278v2.276l-2 4.052-6.942 1.01 5.023 4.896-1.186 6.914 6.21-3.264 6.21 3.264-1.186-6.914z"/></g></g></g></g></g></svg>