<svg xmlns="http://www.w3.org/2000/svg" width="56" height="56" viewBox="0 0 56 56"><defs><linearGradient id="xbeaa" x1="-1023" x2="-1023" y1="-536" y2="-536" gradientUnits="userSpaceOnUse"><stop offset="0" stop-color="#fff"/><stop offset="1" stop-color="#ffd0d0"/></linearGradient><linearGradient id="xbeab" x1="28.18" x2="28.18" y1="34.27" y2="36.19" gradientUnits="userSpaceOnUse"><stop offset="0" stop-color="#ed3138"/><stop offset="1" stop-color="#ff7b7b"/></linearGradient><linearGradient id="xbeac" x1="28.17" x2="28.17" y1="20.78" y2="32.35" gradientUnits="userSpaceOnUse"><stop offset="0" stop-color="#ed3138"/><stop offset="1" stop-color="#ff7b7b"/></linearGradient><linearGradient id="xbead" x1="28.17" x2="28.17" y1="28.19" y2="42" gradientUnits="userSpaceOnUse"><stop offset="0" stop-color="#ed3138"/><stop offset="1" stop-color="#ff7b7b"/></linearGradient><linearGradient id="xbeae" x1="28.17" x2="28.17" y1="13.11" y2="18.86" gradientUnits="userSpaceOnUse"><stop offset="0" stop-color="#ed3138"/><stop offset="1" stop-color="#ff7b7b"/></linearGradient></defs><g><g><path fill="url(#xbeaa)" d="M15 56C6.716 56 0 49.284 0 41V15C0 6.716 6.716 0 15 0h26c8.284 0 15 6.716 15 15v26c0 8.284-6.716 15-15 15z"/></g><g><g><path fill="url(#xbeab)" d="M29.132 35.224v-.959h-1.918v.96a.96.96 0 0 0 1.918 0z"/></g><g><path fill="url(#xbeac)" d="M43.579 20.778H12.768a.958.958 0 0 0-.959.959V26.1l14.643 6.248h3.443L44.538 26.1v-4.363a.958.958 0 0 0-.96-.96z"/></g><g><path fill="url(#xbead)" d="M35.844 36.183h3.835a.958.958 0 1 1 0 1.918h-3.835a.958.958 0 1 1 0-1.918zm-4.794-.959a2.88 2.88 0 0 1-2.877 2.877 2.88 2.88 0 0 1-2.876-2.877V33.94l-13.488-5.753V41.04c0 .53.429.96.959.96h30.81c.53 0 .96-.43.96-.96V28.185L31.05 33.94z"/></g><g><path fill="url(#xbeae)" d="M36.803 18.86v-.959a4.8 4.8 0 0 0-4.794-4.794h-7.671a4.8 4.8 0 0 0-4.794 4.794v.959h3.835v-1.918h9.589v1.918z"/></g></g></g></svg>