<svg xmlns="http://www.w3.org/2000/svg" width="56" height="56" viewBox="0 0 56 56"><defs><linearGradient id="80e6a" x1="-1023" x2="-1023" y1="-468" y2="-468" gradientUnits="userSpaceOnUse"><stop offset="0" stop-color="#fff"/><stop offset="1" stop-color="#a0baff"/></linearGradient><linearGradient id="80e6b" x1="29.08" x2="29.08" y1="12.95" y2="45.53" gradientUnits="userSpaceOnUse"><stop offset="0" stop-color="#6ea0ff"/><stop offset="1" stop-color="#4157ff"/></linearGradient></defs><g><g><path fill="url(#80e6a)" d="M15 56C6.716 56 0 49.284 0 41V15C0 6.716 6.716 0 15 0h26c8.284 0 15 6.716 15 15v26c0 8.284-6.716 15-15 15z"/></g><g><g><path fill="url(#80e6b)" d="M21.791 18.505a2.367 2.367 0 0 1 2.015-1.11c.447 0 .884.126 1.264.365a2.38 2.38 0 0 1 .746 3.28 2.368 2.368 0 0 1-2.015 1.11 2.37 2.37 0 0 1-1.264-.366 2.362 2.362 0 0 1-1.052-1.485 2.362 2.362 0 0 1 .306-1.794zm-7.615 14.123a2.367 2.367 0 0 1 2.015-1.111c.447 0 .884.127 1.264.366.538.338.911.866 1.052 1.485.14.62.032 1.256-.307 1.794a2.367 2.367 0 0 1-2.014 1.111c-.447 0-.885-.126-1.265-.366a2.362 2.362 0 0 1-1.052-1.485 2.364 2.364 0 0 1 .307-1.794zm2.493-5.236a2.37 2.37 0 0 1-1.265-.366 2.362 2.362 0 0 1-1.052-1.485 2.362 2.362 0 0 1 .307-1.794 2.367 2.367 0 0 1 2.014-1.111 2.38 2.38 0 0 1 2.01 3.645 2.368 2.368 0 0 1-2.014 1.11zm21.107.015a105.887 105.887 0 0 1 3.681-5.098c.196.177.415.35.652.514a5.01 5.01 0 0 0 1.223.628 93.804 93.804 0 0 1-3.443 5.426c-2.18 3.213-4.448 6.198-6.385 8.404-1.081 1.233-2.028 2.184-2.758 2.774.282-.9.82-2.137 1.569-3.602 1.339-2.619 3.278-5.831 5.46-9.046zM34.689 23.1a2.367 2.367 0 0 1-2.014 1.11 2.37 2.37 0 0 1-1.265-.365 2.363 2.363 0 0 1-1.051-1.485 2.362 2.362 0 0 1 .306-1.794 2.368 2.368 0 0 1 2.015-1.111c.447 0 .884.126 1.264.366.538.338.911.865 1.052 1.485.14.62.032 1.256-.307 1.794zm13.652-9.11a.558.558 0 0 0-.973-.119c-.704.988-1.63 1.318-2.7 1.7-.864.307-1.757.625-2.722 1.318-1.365.98-1.99 2.316-1.678 3.582l-.034.043a18.318 18.318 0 0 0-1.845-2.275c-3.062-3.196-7.341-5.117-11.74-5.27a16.82 16.82 0 0 0-.585-.01c-4.912 0-9.614 2.195-12.9 6.023-3.267 3.809-4.716 8.767-3.973 13.603.062.404.14.813.23 1.214 1.209 5.317 4.294 9.362 8.465 11.097 1.029.427 2.066.644 3.083.644 2.527 0 4.733-1.351 6.055-3.708a8.02 8.02 0 0 0 .963-2.756c.08-.55.025-1.1-.028-1.632-.055-.549-.107-1.067-.024-1.589.19-1.196 1.026-1.91 2.235-1.91.344 0 .696.056 1.047.168a54.632 54.632 0 0 0-1.11 2.141c-.692 1.414-1.169 2.585-1.418 3.48-.154.552-.563 2.019.434 2.71.316.22.718.298 1.135.22.376-.07 1.522-.283 4.776-3.987a70.012 70.012 0 0 0 2.798-3.42c2.525-.85 4.49-2.967 5.01-5.399.13-.608.184-1.259.161-1.934a86.529 86.529 0 0 0 2.61-4.29 2.2 2.2 0 0 0 .047-.09c1.211-.331 2.254-1.274 2.867-2.592.893-1.924.828-4.396-.186-6.962z"/></g></g></g></svg>