<svg xmlns="http://www.w3.org/2000/svg" width="56" height="56" viewBox="0 0 56 56"><defs><linearGradient id="kvdua" x1="-243" x2="-243" y1="-468" y2="-468" gradientUnits="userSpaceOnUse"><stop offset="0" stop-color="#fff"/><stop offset="1" stop-color="#ffe2cc"/></linearGradient><linearGradient id="kvdub" x1="43.24" x2="43.24" y1="21.39" y2="24.39" gradientUnits="userSpaceOnUse"><stop offset="0" stop-color="#ffb871"/><stop offset="1" stop-color="#ff7334"/></linearGradient><linearGradient id="kvduc" x1="43.24" x2="43.24" y1="12" y2="14.99" gradientUnits="userSpaceOnUse"><stop offset="0" stop-color="#ffb871"/><stop offset="1" stop-color="#ff7334"/></linearGradient><linearGradient id="kvdud" x1="28.63" x2="28.63" y1="12" y2="28.56" gradientUnits="userSpaceOnUse"><stop offset="0" stop-color="#ffb871"/><stop offset="1" stop-color="#ff7334"/></linearGradient><linearGradient id="kvdue" x1="31.17" x2="31.17" y1="32.45" y2="43.17" gradientUnits="userSpaceOnUse"><stop offset="0" stop-color="#ffb871"/><stop offset="1" stop-color="#ff7334"/></linearGradient><linearGradient id="kvduf" x1="14.61" x2="14.61" y1="33.92" y2="45.26" gradientUnits="userSpaceOnUse"><stop offset="0" stop-color="#ffb871"/><stop offset="1" stop-color="#ff7334"/></linearGradient><linearGradient id="kvdug" x1="14.02" x2="14.02" y1="21.39" y2="24.39" gradientUnits="userSpaceOnUse"><stop offset="0" stop-color="#ffb871"/><stop offset="1" stop-color="#ff7334"/></linearGradient><linearGradient id="kvduh" x1="14.02" x2="14.02" y1="12" y2="14.99" gradientUnits="userSpaceOnUse"><stop offset="0" stop-color="#ffb871"/><stop offset="1" stop-color="#ff7334"/></linearGradient></defs><g><g><path fill="url(#kvdua)" d="M15 56C6.716 56 0 49.284 0 41V15C0 6.716 6.716 0 15 0h26c8.284 0 15 6.716 15 15v26c0 8.284-6.716 15-15 15z"/></g><g><g><path fill="url(#kvdub)" d="M44.72 22.54l-2.086-1.044a.974.974 0 0 0-.872 1.743l2.087 1.044a.974.974 0 1 0 .872-1.743z"/></g><g><path fill="url(#kvduc)" d="M42.634 14.89l2.087-1.044a.974.974 0 1 0-.872-1.743l-2.087 1.044a.974.974 0 1 0 .872 1.743z"/></g><g><path fill="url(#kvdud)" d="M27.94 28.273a.974.974 0 0 0 1.379 0l8.096-8.097a4.788 4.788 0 0 0 0-6.775 4.797 4.797 0 0 0-6.775 0l-2.01 2.01-2.01-2.01a4.797 4.797 0 0 0-6.776 0 4.788 4.788 0 0 0 0 6.775z"/></g><g><path fill="url(#kvdue)" d="M38.364 33.388L33.65 38.1a3.043 3.043 0 0 1-2.165.896H27.95c-.525 0-.976-.403-1-.927a.974.974 0 0 1 .973-1.021h3.155a2.087 2.087 0 0 0 0-4.175h-6.355c-2.956 0-3.893 2.49-4.048 3.13h-1.508v7.168h13.437a4.51 4.51 0 0 0 3.208-1.329l7.075-7.075a.974.974 0 0 0-.005-1.382 3.187 3.187 0 0 0-4.518.002z"/></g><g><path fill="url(#kvduf)" d="M16.244 33.917h-3.27a.974.974 0 0 0-.974.975v9.393c0 .538.436.975.974.975h3.27a.974.974 0 0 0 .974-.975v-9.393a.974.974 0 0 0-.974-.975z"/></g><g><path fill="url(#kvdug)" d="M14.626 21.496L12.54 22.54a.974.974 0 1 0 .871 1.743l2.088-1.044a.974.974 0 0 0-.872-1.743z"/></g><g><path fill="url(#kvduh)" d="M12.539 13.846l2.087 1.044a.974.974 0 1 0 .872-1.743l-2.088-1.044a.974.974 0 1 0-.871 1.743z"/></g></g></g></svg>