<svg xmlns="http://www.w3.org/2000/svg" width="56" height="56" viewBox="0 0 56 56"><defs><linearGradient id="kcwta" x1="-243" x2="-243" y1="-891" y2="-891" gradientUnits="userSpaceOnUse"><stop offset="0" stop-color="#fff"/><stop offset="1" stop-color="#d3b7ff"/></linearGradient><linearGradient id="kcwtb" x1="26.85" x2="26.85" y1="9.7" y2="47.16" gradientUnits="userSpaceOnUse"><stop offset="0" stop-color="#7f50ff"/><stop offset="1" stop-color="#9d00ff"/></linearGradient></defs><g><g><path fill="url(#kcwta)" d="M15 56C6.716 56 0 49.284 0 41V15C0 6.716 6.716 0 15 0h26c8.284 0 15 6.716 15 15v26c0 8.284-6.716 15-15 15z"/></g><g><path fill="url(#kcwtb)" d="M11.87 43.674l-1.69-1.69.883-.883.807.808 2.68-2.68.883.882zm13.294-29.16l.883-.883.807.807 2.68-2.68.883.883-3.563 3.563zm14.618 6.609l.807.807 2.68-2.68.883.883-3.563 3.563-1.69-1.69zm1.431 17.298c-1.212 0-2.309.495-3.1 1.292l-11.4-8.458c.483-.83.765-1.793.765-2.823 0-.44-.055-.867-.152-1.278l10.021-3.556a4.368 4.368 0 0 0 8.237-2.034 4.37 4.37 0 1 0-8.655.858l-10.02 3.556a5.638 5.638 0 0 0-2.434-2.518l2.01-5.136c.32.076.651.119.993.119a4.37 4.37 0 1 0-4.37-4.37c0 1.628.893 3.046 2.213 3.797l-2.01 5.14a5.616 5.616 0 0 0-1.452-.197c-.909 0-1.765.221-2.525.604l-3.956-6.066a4.356 4.356 0 0 0 1.487-3.279 4.37 4.37 0 1 0-4.37 4.37c.657 0 1.278-.148 1.837-.409l3.954 6.062a5.607 5.607 0 0 0-.176 8.513l-3.61 5.054a4.37 4.37 0 1 0 2.365 3.88c0-1.24-.52-2.358-1.35-3.153l3.607-5.052a5.599 5.599 0 0 0 6.845-1.08l11.4 8.459a4.37 4.37 0 1 0 3.846-2.294z"/></g></g></svg>