<svg xmlns="http://www.w3.org/2000/svg" width="28" height="17" viewBox="0 0 28 17"><g><g><path fill="#fff" d="M26.812 1.544c.188-.637 0-1.107-.908-1.107H22.9c-.765 0-1.117.403-1.305.852 0 0-1.53 3.728-3.692 6.145-.7.699-1.02.923-1.403.923-.189 0-.48-.224-.48-.862V1.544c0-.765-.213-1.107-.846-1.107h-4.723c-.479 0-.764.357-.764.689 0 .724 1.08.892 1.193 2.932v4.427c0 .969-.173 1.147-.556 1.147-1.02 0-3.498-3.743-4.967-8.027C5.06.774 4.77.437 4 .437H.996c-.856 0-1.03.403-1.03.852 0 .796 1.02 4.748 4.748 9.97 2.484 3.565 5.982 5.498 9.165 5.498 1.912 0 2.147-.429 2.147-1.168 0-3.407-.174-3.728.785-3.728.444 0 1.209.224 2.993 1.943 2.04 2.04 2.377 2.953 3.52 2.953h3.003c.857 0 1.29-.429 1.04-1.275-.57-1.78-4.431-5.442-4.605-5.687-.443-.57-.316-.826 0-1.336.006-.005 3.672-5.166 4.05-6.915z"/></g></g></svg>