<svg xmlns="http://www.w3.org/2000/svg" width="25" height="25" viewBox="0 0 25 25"><g><g><path fill="#fff" d="M24.714 7.71c.114 2.01.114 8.026 0 10.035-.097 1.95-.543 3.676-1.965 5.1-1.423 1.427-3.15 1.873-5.1 1.965-2.009.114-8.03.114-10.04 0-1.95-.098-3.67-.543-5.099-1.966-1.428-1.423-1.873-3.15-1.966-5.099-.114-2.01-.114-8.031 0-10.04.098-1.95.538-3.677 1.966-5.1C3.938 1.183 5.665.737 7.61.645c2.01-.114 8.031-.114 10.04 0 1.95.098 3.677.543 5.1 1.966 1.428 1.423 1.873 3.15 1.965 5.099zm-2.106 5.017c0-1.77.146-5.57-.49-7.173a4.106 4.106 0 0 0-2.313-2.313c-1.596-.63-5.403-.489-7.173-.489-1.77 0-5.571-.147-7.173.489a4.106 4.106 0 0 0-2.313 2.313c-.63 1.597-.49 5.403-.49 7.173 0 1.77-.146 5.572.49 7.174a4.106 4.106 0 0 0 2.313 2.313c1.596.63 5.403.489 7.173.489 1.77 0 5.571.147 7.173-.489a4.106 4.106 0 0 0 2.314-2.313c.635-1.597.489-5.403.489-7.173zm-2.026-6.494c0 .809-.652 1.455-1.455 1.455a1.455 1.455 0 1 1 1.456-1.455zm-1.71 6.494a6.23 6.23 0 0 1-6.24 6.24 6.23 6.23 0 0 1-6.24-6.24 6.23 6.23 0 0 1 6.24-6.239 6.23 6.23 0 0 1 6.24 6.24zm-2.183 0a4.06 4.06 0 0 0-4.057-4.056 4.06 4.06 0 0 0-4.056 4.056 4.063 4.063 0 0 0 4.056 4.057 4.064 4.064 0 0 0 4.057-4.056z"/></g></g></svg>