<svg xmlns="http://www.w3.org/2000/svg" width="23" height="26" viewBox="0 0 23 26"><g><g><path fill="#fff" d="M12.094.746c1.382-.02 2.753-.01 4.124-.02.084 1.613.664 3.258 1.845 4.397 1.181 1.17 2.848 1.708 4.472 1.888v4.25c-1.519-.054-3.048-.37-4.43-1.023-.6-.275-1.16-.623-1.708-.981-.01 3.079.01 6.158-.021 9.227-.084 1.477-.57 2.942-1.424 4.155-1.381 2.025-3.775 3.343-6.232 3.385-1.508.084-3.016-.327-4.303-1.086-2.13-1.255-3.628-3.554-3.85-6.022a19.706 19.706 0 0 1-.01-1.57 7.917 7.917 0 0 1 2.721-5.231c1.75-1.519 4.197-2.247 6.486-1.814.02 1.56-.042 3.121-.042 4.682-1.044-.338-2.268-.243-3.185.39a3.661 3.661 0 0 0-1.434 1.846c-.222.537-.159 1.128-.148 1.697.253 1.73 1.92 3.185 3.69 3.027 1.182-.01 2.31-.696 2.922-1.698.2-.348.422-.706.432-1.118.106-1.887.064-3.764.074-5.652.011-4.25-.01-8.49.021-12.729z"/></g></g></svg>