<svg xmlns="http://www.w3.org/2000/svg" width="27" height="22" viewBox="0 0 27 22"><g><g><path fill="#fff" d="M23.698 5.505c.017.236.017.473.017.71 0 7.22-5.495 15.54-15.54 15.54-3.095 0-5.97-.896-8.388-2.452.44.051.863.068 1.32.068 2.553 0 4.903-.863 6.78-2.334A5.472 5.472 0 0 1 2.78 13.25c.339.05.677.085 1.032.085.49 0 .98-.068 1.437-.186a5.463 5.463 0 0 1-4.38-5.36V7.72c.728.406 1.573.66 2.47.693A5.46 5.46 0 0 1 .903 3.864c0-1.014.27-1.945.744-2.756A15.525 15.525 0 0 0 12.91 6.824a6.157 6.157 0 0 1-.136-1.252A5.46 5.46 0 0 1 18.236.11c1.573 0 2.993.66 3.99 1.725A10.755 10.755 0 0 0 25.695.516a5.45 5.45 0 0 1-2.401 3.01 10.944 10.944 0 0 0 3.145-.846 11.745 11.745 0 0 1-2.74 2.825z"/></g></g></svg>